<svg id="Layer_1" data-name="Layer 1" xmlns="http://www.w3.org/2000/svg" width="139" height="48" viewBox="0 0 139 48">
  <title>MLogoAC</title>
  <g>
    <g>
      <path d="M118.63,36.91V24a2.89,2.89,0,0,1-2.47-2.86c0-.14,0-0.24,0-0.24a0.58,0.58,0,0,0-.08-0.33,1.42,1.42,0,0,0-.54-0.35L106,16.55l-0.39-.15a2.23,2.23,0,0,0-.88-0.21,1.08,1.08,0,0,0-.64.26,2.88,2.88,0,1,1,.72-1.89,1.07,1.07,0,0,0,.31.64,2.29,2.29,0,0,0,.81.44l0.38,0.14,9.39,3.6,0.11,0a1.42,1.42,0,0,0,.63.1l0.07,0a1.4,1.4,0,0,0-.36-0.57l-7.32-7.07-0.3-.29a2.26,2.26,0,0,0-.73-0.54,1.09,1.09,0,0,0-.69,0,2.88,2.88,0,1,1,1.4-1.46,1.08,1.08,0,0,0,0,.71,2.28,2.28,0,0,0,.57.72l0.29,0.28,7.23,7,0.09,0.08a1.43,1.43,0,0,0,.55.34h0.08a1.39,1.39,0,0,0-.11-0.67l-4-9.37-0.16-.38a2.25,2.25,0,0,0-.47-0.78A1.08,1.08,0,0,0,112,7.2a2.88,2.88,0,1,1,1.86-.8,1.07,1.07,0,0,0-.24.66,2.29,2.29,0,0,0,.24.89l0.16,0.37L118,17.59l0,0.11a1.43,1.43,0,0,0,.37.52l0.07,0a1.39,1.39,0,0,0,.16-0.66V7a2.26,2.26,0,0,0-.12-0.9A1.08,1.08,0,0,0,118,5.6a2.88,2.88,0,1,1,2,0,1.07,1.07,0,0,0-.49.52,2.29,2.29,0,0,0-.12.91V17.6a1.41,1.41,0,0,0,.14.63,0.08,0.08,0,0,0,.08,0A1.42,1.42,0,0,0,120,17.7l0-.11L124,8.33,124.18,8a2.3,2.3,0,0,0,.24-0.89,1.07,1.07,0,0,0-.25-0.66,2.88,2.88,0,1,1,1.86.8,1.09,1.09,0,0,0-.63.29,2.26,2.26,0,0,0-.46.78l-0.16.38-4,9.37a1.41,1.41,0,0,0-.12.63,0.08,0.08,0,0,0,.09,0,1.42,1.42,0,0,0,.55-0.34l0.09-.08,7.24-7,0.29-.28a2.29,2.29,0,0,0,.57-0.72,1.06,1.06,0,0,0,0-.71,2.88,2.88,0,1,1,1.4,1.46,1.09,1.09,0,0,0-.69,0,2.26,2.26,0,0,0-.73.54l-0.3.29-7.32,7.07a1.42,1.42,0,0,0-.36.53,0.08,0.08,0,0,0,.07.06,1.43,1.43,0,0,0,.64-0.1l0.11,0,9.39-3.6,0.38-.14a2.27,2.27,0,0,0,.81-0.44,1.06,1.06,0,0,0,.31-0.64,2.88,2.88,0,1,1,.72,1.89,1.09,1.09,0,0,0-.64-0.26,2.23,2.23,0,0,0-.89.21l-0.39.15-9.5,3.65a1.4,1.4,0,0,0-.54.35,0.63,0.63,0,0,0-.08.39,0.7,0.7,0,0,1,0,.12v0.06A2.89,2.89,0,0,1,119.44,24V36.91h-0.82Z" style="fill: #e63739"/>
      <path d="M120.38,28.51c5.67-2.71,11.67-5.21,17.88-6.31,1,2.66-2.17,4.51-4.14,5.49-4.1,1.79-9.48,2.48-13.74.82m-2.52-.58c-5.61-2.73-11.61-5.22-17.8-6.18,1.78-2.35,5.27-2.17,7.84-1.67a15.32,15.32,0,0,1,10,7.84m-0.17.58c-4.27,1.67-9.64,1-13.74-.82-2-1-5.14-2.83-4.13-5.49,6.21,1.1,12.21,3.6,17.88,6.31m2.52-.58a15.32,15.32,0,0,1,10-7.84c2.57-.51,6.06-0.68,7.84,1.67-6.2,1-12.19,3.45-17.8,6.18" style="fill: #6e963c"/>
      <path d="M139,43.53a12.85,12.85,0,0,1-4.62.92,12.7,12.7,0,0,1-7.67-2.69,12.3,12.3,0,0,1-15.35,0,12.21,12.21,0,0,1-12.28,1.78V41.37a11.48,11.48,0,0,0,4.59,1,11.94,11.94,0,0,0,7.69-2.93,11.52,11.52,0,0,0,15.35,0,11.85,11.85,0,0,0,7.66,2.93,11.57,11.57,0,0,0,4.62-1v2.16Zm0,3.55a12.88,12.88,0,0,1-4.62.92,12.69,12.69,0,0,1-7.67-2.69,12.3,12.3,0,0,1-15.35,0,12.21,12.21,0,0,1-12.28,1.78V44.92a11.46,11.46,0,0,0,4.59,1A11.93,11.93,0,0,0,111.36,43a11.52,11.52,0,0,0,15.35,0,11.85,11.85,0,0,0,7.66,2.93,11.55,11.55,0,0,0,4.62-1v2.16ZM125.35,36.72a6.21,6.21,0,0,0,1.36-1.61,6.29,6.29,0,0,0,1.36,1.61,10.19,10.19,0,0,0,6.3,2.28A10.52,10.52,0,0,0,139,37.85v2.22a12.52,12.52,0,0,1-4.62,1,12.24,12.24,0,0,1-7.66-2.81,11.9,11.9,0,0,1-15.35,0,11.83,11.83,0,0,1-12.28,1.86V37.85A10.42,10.42,0,0,0,103.67,39,10.28,10.28,0,0,0,110,36.72a6.29,6.29,0,0,0,1.36-1.61,6.27,6.27,0,0,0,1.36,1.61,9.88,9.88,0,0,0,12.63,0" style="fill: #007dba"/>
    </g>
    <path d="M60.29,31.08l0,9.38a7.09,7.09,0,0,0,.43,2.68A8.87,8.87,0,0,1,58.59,43c-0.77-.14-1.44-0.45-1.44-1.07V41.44a4.5,4.5,0,0,1-3.75,2c-3.52,0-4.4-2-4.4-5v-7.4H52.3v6.8c0,2,.58,3,2.12,3,1.79,0,2.56-1,2.56-3.45V31.08h3.31Zm1.16,12v-12h3.14v1.68a4.5,4.5,0,0,1,3.75-2c3.52,0,4.4,2,4.4,5v5.84a2,2,0,0,0,.43,1.58,10.64,10.64,0,0,1-1.75,0c-1-.09-2-0.38-2-1.15V36.31c0-2-.58-3-2.12-3-1.79,0-2.56,1-2.56,3.45v6.31H61.45Zm29.1-1V25.82c0.2,0.38,1.22.54,2.08,0.61,0.48,0,.92,0,1.22,0v14a6.35,6.35,0,0,0,.42,2.68,10.58,10.58,0,0,1-1.74,0L92,43l-0.11,0-0.09,0-0.14,0-0.1,0-0.15,0-0.13,0a1.09,1.09,0,0,1-.77-0.77M89.32,29.21H86V26.49h3.31v2.72ZM86,31.08h3.31v12H86v-12Zm-0.79,4.24H82a2.25,2.25,0,0,0-2.44-2.07c-2.12,0-2.82,2.14-2.82,3.91s0.68,3.79,2.75,3.79A2.54,2.54,0,0,0,82.1,38.5h3.19c-0.42,3.19-2.63,4.94-5.8,4.94a5.84,5.84,0,0,1-6.08-6.17c0-3.75,2.23-6.52,6.15-6.52,2.84,0,5.45,1.49,5.66,4.57M39.17,37.11c0,1.91.68,3.84,2.91,3.84S45,39,45,37.11s-0.68-3.86-2.93-3.86-2.91,1.93-2.91,3.86m-3.31,0c0-3.84,2.45-6.36,6.22-6.36s6.24,2.52,6.24,6.36-2.45,6.33-6.24,6.33-6.22-2.52-6.22-6.33m-0.79-5H31.53a3.59,3.59,0,0,0-3.63-2.91c-3.28,0-4.52,2.79-4.52,5.71s1.23,5.57,4.52,5.57c2.24,0,3.49-1.54,3.77-3.73h3.54a7,7,0,0,1-7.31,6.8c-5.15,0-8.17-3.84-8.17-8.64s3-8.78,8.17-8.78c3.66,0,6.73,2.14,7.17,6" style="fill: #00304b"/>
    <path d="M69.73,23.94v-12h3.14v1.68a4.5,4.5,0,0,1,3.75-2c3.52,0,4.4,2,4.4,5v5.84A2,2,0,0,0,81.45,24a10.92,10.92,0,0,1-1.75,0c-1-.09-2-0.38-2-1.15V17.14c0-2-.58-3-2.12-3-1.79,0-2.56,1-2.56,3.45v6.31H69.73Zm-41.85-12v9.38A7,7,0,0,0,28.32,24a8.8,8.8,0,0,1-2.15-.09c-0.77-.14-1.44-0.45-1.44-1.07V22.26a4.5,4.5,0,0,1-3.75,2c-3.52,0-4.4-2-4.4-5V11.9h3.31v6.8c0,2,.58,3,2.12,3,1.79,0,2.56-1,2.56-3.45V11.9h3.31Zm27.5,12-0.5-.07-0.11,0-0.09,0-0.14,0-0.09,0-0.15,0-0.13,0-0.11,0a1,1,0,0,1-.65-0.72V7.32h3.31v14A6.31,6.31,0,0,0,57.12,24a10.83,10.83,0,0,1-1.74,0m35.29-6c0-2-.7-3.82-2.84-3.82s-2.91,1.86-2.91,3.84,0.86,3.86,2.91,3.86,2.84-1.91,2.84-3.89m2,6.05c-1-.07-2-0.32-2.15-1.05a1.08,1.08,0,0,1,0-.11V22.69A4.25,4.25,0,0,1,87,24.28c-3.63,0-5.4-3.12-5.4-6.45s1.79-6.24,5.33-6.24a4.14,4.14,0,0,1,3.56,1.79l0-6.05h3.31V21.28A6.13,6.13,0,0,0,94.28,24a10.85,10.85,0,0,1-1.58,0M61,15.6h-3.3c0.19-3.1,3-4,5.66-4,2.4,0,5.29.54,5.29,3.42v6.27a6.18,6.18,0,0,0,.42,2.68s-3.59.32-3.59-1.16a5.52,5.52,0,0,1-4.05,1.49c-2.28,0-4.1-1.14-4.1-3.61,0-2.73,2-3.38,4.1-3.66s3.91-.23,3.91-1.58-1-1.63-2.14-1.63A1.88,1.88,0,0,0,61,15.6m4.33,3.68V18c-0.56.49-1.72,0.51-2.75,0.7s-2,.56-2,1.77,1,1.54,2,1.54a2.46,2.46,0,0,0,2.68-2.77M41.12,23.94V7.32h3.31v8.92l4.17-4.33H52.5L48,16.33,53,23.94H51.53c-2.64,0-3.43-1.48-3.43-1.48l-2.4-3.9L44.42,19.8v4.15H41.12Zm-0.77-7.8H37.12a2.25,2.25,0,0,0-2.44-2.07c-2.12,0-2.82,2.14-2.82,3.91s0.68,3.8,2.75,3.8a2.54,2.54,0,0,0,2.63-2.44h3.19c-0.42,3.19-2.63,4.94-5.8,4.94a5.84,5.84,0,0,1-6.08-6.17c0-3.75,2.24-6.52,6.15-6.52,2.84,0,5.45,1.49,5.66,4.56M8.76,11.44h0l2.09,6.09H6.6ZM0.65,23.95h3.7l1.3-3.7h6.21s0.67,2.07.94,2.76c0.55,1.43,4.11.94,4.11,0.94L10.69,7.34H6.95Z" style="fill: #00304b"/>
  </g>
</svg>
