<svg id="Layer_1" data-name="Layer 1" xmlns="http://www.w3.org/2000/svg" width="190" height="50" viewBox="0 0 190 50"><defs><style>.cls-1{fill:#204694;}.cls-2{fill:#090;}.cls-3{fill:#ccc;}.cls-4{fill:#9e9e9e;}.cls-5{fill:#fff;}</style></defs><title>aquarius-webportal</title><g id="_Group_" data-name="&lt;Group&gt;"><g id="_Group_2" data-name="&lt;Group&gt;"><path id="_Compound_Path_" data-name="&lt;Compound Path&gt;" class="cls-1" d="M65.57,5c.28-.77.38-.91.51-.91s.24.12.51.84c.35.89,4,10.53,5.44,14.08.84,2.08,1.52,2.45,2,2.59a3,3,0,0,0,.93.14c.14,0,.23,0,.23.14s-.21.19-.47.19-2.06,0-3.67,0c-.45,0-.7,0-.7-.16s.07-.14.16-.16.28-.26.14-.63l-2.17-5.74a.21.21,0,0,0-.21-.14h-5a.25.25,0,0,0-.23.19l-1.4,4.13a4.91,4.91,0,0,0-.33,1.56c0,.47.49.68.89.68h.23c.17,0,.24,0,.24.14s-.14.19-.35.19c-.56,0-1.57-.07-1.82-.07s-1.54.07-2.64.07c-.3,0-.45,0-.45-.19s.09-.14.21-.14.49,0,.67,0c1.07-.14,1.54-1,2-2.2ZM68,14.37c.12,0,.12-.07.09-.16L65.87,7.9q-.18-.52-.35,0l-2.06,6.31c0,.12,0,.16.07.16Z"/><path id="_Compound_Path_2" data-name="&lt;Compound Path&gt;" class="cls-1" d="M98.69,11.22c0-3.64,0-4.3,0-5s-.23-1.17-1-1.33a4.26,4.26,0,0,0-.79-.07c-.09,0-.19,0-.19-.14s.12-.19.37-.19c1.05,0,2.47.07,2.69.07s1.61-.07,2.31-.07c.25,0,.37,0,.37.19s-.09.14-.19.14a3.43,3.43,0,0,0-.59.07c-.63.09-.82.51-.86,1.33s0,1.4,0,5v3.27c0,3.36.75,4.81,1.75,5.77A4.57,4.57,0,0,0,106,21.54a4.9,4.9,0,0,0,3.66-1.68c1.07-1.33,1.36-3.32,1.36-5.72V11.22c0-3.64,0-4.3,0-5s-.23-1.17-1-1.33a4.22,4.22,0,0,0-.79-.07c-.1,0-.19,0-.19-.14s.12-.19.37-.19c1,0,2.33.07,2.47.07s1.26-.07,2-.07c.25,0,.37,0,.37.19s-.1.14-.18.14a3.45,3.45,0,0,0-.59.07c-.63.14-.82.51-.87,1.33s0,1.4,0,5v2.5c0,2.52-.28,5.32-2.15,7a6.82,6.82,0,0,1-4.81,1.73,7.16,7.16,0,0,1-4.81-1.66c-1.14-1.09-2-2.73-2-6.14Z"/><path id="_Compound_Path_3" data-name="&lt;Compound Path&gt;" class="cls-1" d="M122.37,5c.28-.77.38-.91.51-.91s.24.12.52.84c.35.89,4,10.53,5.44,14.08.84,2.08,1.52,2.45,2,2.59a3,3,0,0,0,.93.14c.14,0,.23,0,.23.14s-.21.19-.47.19-2.06,0-3.67,0c-.44,0-.7,0-.7-.16s.07-.14.17-.16.28-.26.14-.63l-2.17-5.74a.21.21,0,0,0-.21-.14h-5a.24.24,0,0,0-.23.19l-1.4,4.13a4.94,4.94,0,0,0-.33,1.56c0,.47.49.68.89.68h.23c.16,0,.23,0,.23.14s-.14.19-.35.19c-.56,0-1.56-.07-1.82-.07s-1.55.07-2.64.07c-.3,0-.45,0-.45-.19s.1-.14.21-.14.49,0,.68,0c1.07-.14,1.54-1,2-2.2Zm2.43,9.34c.11,0,.11-.07.09-.16L122.68,7.9c-.12-.35-.23-.35-.35,0l-2.05,6.31c0,.12,0,.16.07.16Z"/><path id="_Compound_Path_4" data-name="&lt;Compound Path&gt;" class="cls-1" d="M135.36,11.22c0-3.64,0-4.3,0-5s-.24-1.17-1-1.33a4.2,4.2,0,0,0-.79-.07c-.09,0-.19,0-.19-.14s.12-.19.37-.19c1.05,0,2.52.07,2.64.07s2-.07,2.76-.07a7.19,7.19,0,0,1,4.27,1A4.09,4.09,0,0,1,145,8.65c0,1.73-.73,3.46-2.83,5.39,1.91,2.45,3.51,4.53,4.86,6a4.82,4.82,0,0,0,2.85,1.68,5.54,5.54,0,0,0,.91.07c.12,0,.21.07.21.14s-.14.19-.56.19h-1.66a4.75,4.75,0,0,1-2.5-.45c-1-.53-1.82-1.68-3.15-3.43-1-1.28-2.08-2.85-2.55-3.46a.38.38,0,0,0-.31-.14l-2.87,0c-.12,0-.16.07-.16.19v.56c0,2.24,0,4.09.12,5.06.07.68.21,1.19.91,1.29a9.83,9.83,0,0,0,1,.09c.14,0,.19.07.19.14s-.12.19-.37.19c-1.28,0-2.76-.07-2.87-.07s-1.49.07-2.19.07c-.26,0-.37,0-.37-.19s0-.14.19-.14a3.59,3.59,0,0,0,.7-.09c.47-.1.58-.61.68-1.29.11-1,.11-2.82.11-5.06Zm1.87,2a.3.3,0,0,0,.16.28,6.43,6.43,0,0,0,2.46.37,3,3,0,0,0,1.75-.44A4.28,4.28,0,0,0,143,9.86c0-2.92-1.54-4.67-4-4.67a7,7,0,0,0-1.57.14.27.27,0,0,0-.18.28Z"/><path id="_Compound_Path_5" data-name="&lt;Compound Path&gt;" class="cls-1" d="M154.93,15.33c0,2.24,0,4.09.12,5.06.07.68.21,1.19.91,1.29a9.86,9.86,0,0,0,1.05.09c.14,0,.18.07.18.14s-.12.19-.37.19c-1.29,0-2.76-.07-2.87-.07s-1.59.07-2.29.07c-.26,0-.37,0-.37-.19s0-.14.19-.14a3.56,3.56,0,0,0,.7-.09c.47-.1.58-.61.68-1.29.12-1,.12-2.82.12-5.06V11.22c0-3.64,0-4.3,0-5s-.28-1.19-.8-1.31a3.12,3.12,0,0,0-.72-.09c-.09,0-.19,0-.19-.14s.12-.19.38-.19c.77,0,2.24.07,2.36.07s1.59-.07,2.29-.07c.25,0,.37,0,.37.19s-.1.14-.18.14a3.41,3.41,0,0,0-.58.07c-.63.12-.82.51-.87,1.33s0,1.4,0,5Z"/><path id="_Compound_Path_6" data-name="&lt;Compound Path&gt;" class="cls-1" d="M161.89,11.22c0-3.64,0-4.3,0-5s-.23-1.17-1-1.33a4.25,4.25,0,0,0-.79-.07c-.09,0-.18,0-.18-.14s.12-.19.37-.19c1,0,2.47.07,2.68.07s1.61-.07,2.31-.07c.26,0,.37,0,.37.19s-.09.14-.19.14a3.4,3.4,0,0,0-.58.07c-.63.09-.82.51-.86,1.33s0,1.4,0,5v3.27c0,3.36.75,4.81,1.75,5.77a4.57,4.57,0,0,0,3.52,1.28,4.92,4.92,0,0,0,3.67-1.68c1.07-1.33,1.35-3.32,1.35-5.72V11.22c0-3.64,0-4.3,0-5s-.24-1.17-1-1.33a4.27,4.27,0,0,0-.79-.07c-.09,0-.19,0-.19-.14s.11-.19.37-.19c1.05,0,2.33.07,2.47.07s1.26-.07,2-.07c.26,0,.37,0,.37.19s-.09.14-.19.14a3.36,3.36,0,0,0-.58.07c-.63.14-.82.51-.86,1.33s0,1.4,0,5v2.5c0,2.52-.28,5.32-2.15,7a6.83,6.83,0,0,1-4.81,1.73,7.17,7.17,0,0,1-4.81-1.66c-1.14-1.09-2-2.73-2-6.14Z"/><path id="_Compound_Path_7" data-name="&lt;Compound Path&gt;" class="cls-1" d="M181.13,21.8c-.32-.17-.35-.26-.35-.89,0-1.17.09-2.1.12-2.48s.07-.37.19-.37.17.07.17.26a4,4,0,0,0,.07.86c.35,1.73,1.89,2.38,3.46,2.38a3.12,3.12,0,0,0,3.34-3.11c0-1.61-.68-2.54-2.68-4.2l-1-.86c-2.48-2-3-3.48-3-5.07,0-2.5,1.87-4.2,4.83-4.2a9,9,0,0,1,2.17.23,4,4,0,0,0,.82.12c.19,0,.23,0,.23.16s-.1.89-.1,2.48c0,.37,0,.54-.16.54s-.17-.12-.19-.31a4,4,0,0,0-.3-1.17c-.14-.26-.77-1.24-2.91-1.24a2.65,2.65,0,0,0-2.87,2.71c0,1.33.6,2.17,2.84,3.92l.66.51c2.75,2.17,3.41,3.62,3.41,5.49a4.84,4.84,0,0,1-2,3.87,6.14,6.14,0,0,1-3.53,1A7.14,7.14,0,0,1,181.13,21.8Z"/><g id="_Group_3" data-name="&lt;Group&gt;"><path id="_Compound_Path_8" data-name="&lt;Compound Path&gt;" class="cls-1" d="M88.64,21.62a9.17,9.17,0,0,1-3.66.79c-6.46,0-9.12-5-9.12-9.17A9,9,0,0,1,85,4.14c5.25,0,9.16,3.34,9.16,8.74a9.59,9.59,0,0,1-4.13,7.83l4.78,2.47c5.11,2.64,8.65,2.75,9.81,2.75a13.18,13.18,0,0,0,4.6-.91,1.41,1.41,0,0,1,.32-.09.14.14,0,0,1,.14.14c0,.09,0,.16-.18.23a17.85,17.85,0,0,1-7.39,1.61c-2.82,0-5.83-1-9.61-3.12Zm-3.1-.09a6.39,6.39,0,0,0,2.36-.47s-2.76-1.66-4.34-1.71c-.71,0,.13-1.17,4.06.13.85.28,1.59.85,1.72.75C90.77,19.12,92,17.1,92,13.53c0-5.59-3.4-8.6-7.09-8.6-3.89,0-6.81,2.56-6.81,7.67C78.08,18,81.34,21.53,85.54,21.53Z"/></g></g></g><path class="cls-2" d="M73.14,42.79A.6.6,0,0,1,73,43a.57.57,0,0,1-.24.14,1.86,1.86,0,0,1-.38.07l-.56,0-.58,0a1.87,1.87,0,0,1-.4-.07A.49.49,0,0,1,70.6,43a.69.69,0,0,1-.12-.25l-3-10.88h0L64.65,42.79a.59.59,0,0,1-.11.25.49.49,0,0,1-.22.14,1.63,1.63,0,0,1-.37.07l-.58,0-.61,0a1.88,1.88,0,0,1-.4-.07A.52.52,0,0,1,62.1,43a.54.54,0,0,1-.12-.25L58.18,29.48a2,2,0,0,1-.07-.4.26.26,0,0,1,.09-.22.58.58,0,0,1,.31-.1l.57,0,.55,0a1.07,1.07,0,0,1,.31.06.27.27,0,0,1,.14.12.74.74,0,0,1,.06.2l3.24,12.07h0l3.07-12.05a.84.84,0,0,1,.08-.21.31.31,0,0,1,.16-.13,1.25,1.25,0,0,1,.32-.07l.54,0,.5,0a1.22,1.22,0,0,1,.3.07.32.32,0,0,1,.16.13.78.78,0,0,1,.08.21L71.9,41.21h0L75.1,29.14c0-.07,0-.14.07-.19a.24.24,0,0,1,.14-.13,1.14,1.14,0,0,1,.3-.07l.52,0a3.87,3.87,0,0,1,.53,0,.55.55,0,0,1,.28.11.26.26,0,0,1,.08.22,2.42,2.42,0,0,1-.06.4Z"/><path class="cls-2" d="M88.28,37.49a.77.77,0,0,1-.22.62.75.75,0,0,1-.5.18H81a6.21,6.21,0,0,0,.17,1.5,2.9,2.9,0,0,0,.56,1.15,2.52,2.52,0,0,0,1,.74,4.06,4.06,0,0,0,1.53.26,6.3,6.3,0,0,0,1.28-.12,7.67,7.67,0,0,0,1-.26l.67-.26a1.11,1.11,0,0,1,.4-.12.25.25,0,0,1,.14,0,.25.25,0,0,1,.09.12.8.8,0,0,1,.05.22,2.82,2.82,0,0,1,0,.34,2.44,2.44,0,0,1,0,.25c0,.07,0,.13,0,.19a.49.49,0,0,1-.06.15.62.62,0,0,1-.1.13,1.6,1.6,0,0,1-.36.2,5.27,5.27,0,0,1-.78.27,11,11,0,0,1-1.11.24,8.14,8.14,0,0,1-1.34.11,6.21,6.21,0,0,1-2.17-.34,4,4,0,0,1-1.57-1,4.38,4.38,0,0,1-1-1.7A8,8,0,0,1,79.06,38a7.51,7.51,0,0,1,.33-2.32,4.93,4.93,0,0,1,1-1.75,4.21,4.21,0,0,1,1.52-1.1,5,5,0,0,1,2-.38,4.82,4.82,0,0,1,2,.38,3.8,3.8,0,0,1,1.36,1,4.11,4.11,0,0,1,.79,1.5,6.59,6.59,0,0,1,.25,1.84Zm-1.85-.55a3.34,3.34,0,0,0-.64-2.27,2.45,2.45,0,0,0-2-.82,2.66,2.66,0,0,0-1.2.26,2.59,2.59,0,0,0-.86.68,3.11,3.11,0,0,0-.54,1A4.11,4.11,0,0,0,81,36.94Z"/><path class="cls-2" d="M101.44,37.79a8.9,8.9,0,0,1-.28,2.34,5.21,5.21,0,0,1-.83,1.78A3.7,3.7,0,0,1,99,43a4.15,4.15,0,0,1-1.84.39,3.92,3.92,0,0,1-.89-.09,3.19,3.19,0,0,1-.8-.31,4.83,4.83,0,0,1-.78-.53,9.66,9.66,0,0,1-.83-.78v1.23a.27.27,0,0,1,0,.16.3.3,0,0,1-.14.11l-.25.06-.38,0-.38,0-.26-.06a.24.24,0,0,1-.13-.11.34.34,0,0,1,0-.16V28.05a.3.3,0,0,1,0-.16.29.29,0,0,1,.14-.11,1.11,1.11,0,0,1,.28-.07l.45,0,.46,0a1,1,0,0,1,.28.07.33.33,0,0,1,.14.11.27.27,0,0,1,0,.16v6a7.48,7.48,0,0,1,.86-.77,5.17,5.17,0,0,1,.82-.51,3.66,3.66,0,0,1,.8-.28,3.89,3.89,0,0,1,.85-.09,3.76,3.76,0,0,1,1.87.43A3.61,3.61,0,0,1,100.51,34a5.12,5.12,0,0,1,.71,1.71A9.38,9.38,0,0,1,101.44,37.79ZM99.53,38a9.3,9.3,0,0,0-.12-1.49A4.19,4.19,0,0,0,99,35.23a2.47,2.47,0,0,0-.77-.9A2,2,0,0,0,97,34a2.54,2.54,0,0,0-.71.1,2.64,2.64,0,0,0-.71.33,5.32,5.32,0,0,0-.75.6,8.68,8.68,0,0,0-.82.92v4a7.58,7.58,0,0,0,1.46,1.41,2.49,2.49,0,0,0,1.45.48,2.07,2.07,0,0,0,1.19-.33,2.55,2.55,0,0,0,.8-.89,4.26,4.26,0,0,0,.45-1.24A6.92,6.92,0,0,0,99.53,38Z"/><path class="cls-2" d="M114.41,33a5.1,5.1,0,0,1-.36,1.95,4.11,4.11,0,0,1-1,1.48,4.56,4.56,0,0,1-1.63.95,7,7,0,0,1-2.3.33h-1.64v5.19a.25.25,0,0,1-.05.16.32.32,0,0,1-.16.11,1.52,1.52,0,0,1-.29.07,3.82,3.82,0,0,1-.92,0l-.3-.07a.3.3,0,0,1-.16-.11.27.27,0,0,1,0-.16V29.62a.77.77,0,0,1,.23-.64.81.81,0,0,1,.52-.19h3.09q.47,0,.9,0a8.4,8.4,0,0,1,1,.17,4.17,4.17,0,0,1,1.19.48,3.77,3.77,0,0,1,1,.86,3.73,3.73,0,0,1,.65,1.19A4.62,4.62,0,0,1,114.41,33Zm-2,.16a3,3,0,0,0-.33-1.47,2.29,2.29,0,0,0-.81-.88,2.73,2.73,0,0,0-1-.37,6.77,6.77,0,0,0-1-.08h-1.77v5.78h1.73a4,4,0,0,0,1.44-.22,2.7,2.7,0,0,0,1-.62,2.59,2.59,0,0,0,.59-.95A3.48,3.48,0,0,0,112.39,33.18Z"/><path class="cls-2" d="M127.13,37.81a7.53,7.53,0,0,1-.32,2.26,5,5,0,0,1-1,1.78,4.37,4.37,0,0,1-1.6,1.16,5.57,5.57,0,0,1-2.23.42,5.78,5.78,0,0,1-2.16-.37A3.94,3.94,0,0,1,118.32,42a4.52,4.52,0,0,1-.91-1.7,7.88,7.88,0,0,1-.3-2.27,7.61,7.61,0,0,1,.32-2.25,4.9,4.9,0,0,1,1-1.78,4.32,4.32,0,0,1,1.6-1.16,5.63,5.63,0,0,1,2.24-.41,5.79,5.79,0,0,1,2.16.37,3.94,3.94,0,0,1,1.53,1.07,4.6,4.6,0,0,1,.92,1.7A7.74,7.74,0,0,1,127.13,37.81Zm-1.91.12a7.52,7.52,0,0,0-.15-1.54,3.78,3.78,0,0,0-.5-1.27,2.48,2.48,0,0,0-.94-.86,3.12,3.12,0,0,0-1.48-.32,3.17,3.17,0,0,0-1.41.29,2.6,2.6,0,0,0-1,.82,3.68,3.68,0,0,0-.57,1.25,6.36,6.36,0,0,0-.18,1.58,7.57,7.57,0,0,0,.15,1.55,3.66,3.66,0,0,0,.51,1.26,2.54,2.54,0,0,0,.95.86,3.13,3.13,0,0,0,1.48.32,3.18,3.18,0,0,0,1.4-.29,2.59,2.59,0,0,0,1-.81,3.53,3.53,0,0,0,.56-1.25A6.57,6.57,0,0,0,125.23,37.93Z"/><path class="cls-2" d="M136.84,33.57c0,.16,0,.3,0,.41a1,1,0,0,1,0,.26.39.39,0,0,1-.08.14.19.19,0,0,1-.14.05.61.61,0,0,1-.22-.05l-.29-.1-.36-.09a2,2,0,0,0-.43,0,1.41,1.41,0,0,0-.55.11,2.14,2.14,0,0,0-.56.37,4.61,4.61,0,0,0-.62.68q-.32.42-.71,1v6.59a.25.25,0,0,1,0,.15.36.36,0,0,1-.14.11,1,1,0,0,1-.28.07l-.46,0-.45,0a1.11,1.11,0,0,1-.28-.07.31.31,0,0,1-.14-.11.27.27,0,0,1,0-.15v-10a.31.31,0,0,1,0-.15.3.3,0,0,1,.13-.11.77.77,0,0,1,.26-.07l.41,0,.41,0a.67.67,0,0,1,.25.07.37.37,0,0,1,.13.11.28.28,0,0,1,0,.15v1.46a7.9,7.9,0,0,1,.77-1,4.23,4.23,0,0,1,.69-.6,2.11,2.11,0,0,1,.64-.3,2.52,2.52,0,0,1,.64-.08l.33,0,.38.06.36.1a.77.77,0,0,1,.23.11.33.33,0,0,1,.09.11.77.77,0,0,1,0,.13,1.53,1.53,0,0,1,0,.23C136.84,33.26,136.84,33.4,136.84,33.57Z"/><path class="cls-2" d="M145.29,42.2a2.39,2.39,0,0,1,0,.51.59.59,0,0,1-.13.28.89.89,0,0,1-.27.17,2.25,2.25,0,0,1-.41.13l-.48.08a4,4,0,0,1-.51,0,3.87,3.87,0,0,1-1.34-.21,2.16,2.16,0,0,1-.91-.62,2.56,2.56,0,0,1-.52-1.06,6.2,6.2,0,0,1-.16-1.51V34.15h-1.4a.3.3,0,0,1-.27-.18,1.24,1.24,0,0,1-.1-.58,2,2,0,0,1,0-.36,1,1,0,0,1,.07-.24.27.27,0,0,1,.12-.13.33.33,0,0,1,.16,0h1.39V30.23a.28.28,0,0,1,0-.14.32.32,0,0,1,.15-.12,1,1,0,0,1,.28-.07l.45,0,.46,0a.9.9,0,0,1,.28.07.38.38,0,0,1,.15.12.26.26,0,0,1,0,.14v2.38h2.57a.3.3,0,0,1,.16,0,.32.32,0,0,1,.12.13.77.77,0,0,1,.07.24,2.39,2.39,0,0,1,0,.36,1.24,1.24,0,0,1-.1.58.3.3,0,0,1-.27.18h-2.57v5.59a3.18,3.18,0,0,0,.31,1.57,1.16,1.16,0,0,0,1.1.53,1.87,1.87,0,0,0,.46-.05l.36-.11.27-.11a.49.49,0,0,1,.2-.05.21.21,0,0,1,.11,0,.18.18,0,0,1,.08.11,1.32,1.32,0,0,1,0,.21A2.07,2.07,0,0,1,145.29,42.2Z"/><path class="cls-2" d="M156.13,42.94a.23.23,0,0,1-.09.2.63.63,0,0,1-.24.1,2.34,2.34,0,0,1-.46,0,2.53,2.53,0,0,1-.46,0,.55.55,0,0,1-.25-.1.25.25,0,0,1-.08-.2v-1A5,5,0,0,1,153.08,43a3.88,3.88,0,0,1-1.71.39,4.68,4.68,0,0,1-1.43-.21,3.11,3.11,0,0,1-1.09-.6,2.67,2.67,0,0,1-.7-1,3.16,3.16,0,0,1-.25-1.29,3,3,0,0,1,.34-1.47,2.87,2.87,0,0,1,1-1,4.86,4.86,0,0,1,1.58-.62,9.8,9.8,0,0,1,2.1-.21h1.38v-.78a3.88,3.88,0,0,0-.12-1,1.76,1.76,0,0,0-.4-.74,1.71,1.71,0,0,0-.71-.45A3.32,3.32,0,0,0,152,33.9a4.24,4.24,0,0,0-1.22.16,6.42,6.42,0,0,0-.95.36q-.41.19-.68.36a.94.94,0,0,1-.41.16.28.28,0,0,1-.16,0,.37.37,0,0,1-.12-.13.68.68,0,0,1-.07-.23,2,2,0,0,1,0-.31,2,2,0,0,1,0-.44.64.64,0,0,1,.19-.31,2.44,2.44,0,0,1,.52-.34,5.82,5.82,0,0,1,.85-.36,7.79,7.79,0,0,1,1-.27,6.28,6.28,0,0,1,1.15-.11,6,6,0,0,1,1.84.25,3,3,0,0,1,1.22.72,2.78,2.78,0,0,1,.68,1.17,5.69,5.69,0,0,1,.21,1.64Zm-1.83-4.58h-1.57a5.9,5.9,0,0,0-1.31.13,2.68,2.68,0,0,0-.92.38,1.55,1.55,0,0,0-.54.6,1.8,1.8,0,0,0-.17.81,1.62,1.62,0,0,0,.5,1.24,2,2,0,0,0,1.39.46,2.58,2.58,0,0,0,1.34-.37,5.79,5.79,0,0,0,1.3-1.12Z"/><path class="cls-2" d="M162.48,42.93a.25.25,0,0,1,0,.15.36.36,0,0,1-.14.11,1,1,0,0,1-.28.07l-.46,0-.45,0a1.11,1.11,0,0,1-.28-.07.31.31,0,0,1-.14-.11.27.27,0,0,1,0-.15V28.05a.3.3,0,0,1,0-.16.29.29,0,0,1,.14-.11,1.11,1.11,0,0,1,.28-.07l.45,0,.46,0a1,1,0,0,1,.28.07.33.33,0,0,1,.14.11.27.27,0,0,1,0,.16Z"/><circle id="_Path_" data-name="&lt;Path&gt;" class="cls-3" cx="25" cy="25" r="24.5"/><path class="cls-4" d="M25,50A25,25,0,1,1,50,25,25,25,0,0,1,25,50ZM25,1A24,24,0,1,0,49,25,24,24,0,0,0,25,1Z"/><circle id="_Path_2" data-name="&lt;Path&gt;" class="cls-5" cx="25.24" cy="25.18" r="20.71"/><path class="cls-4" d="M25.24,46.37A21.19,21.19,0,1,1,46.43,25.18,21.21,21.21,0,0,1,25.24,46.37Zm0-41.43A20.24,20.24,0,1,0,45.48,25.18,20.26,20.26,0,0,0,25.24,4.94Z"/><path id="_Path_3" data-name="&lt;Path&gt;" class="cls-2" d="M41.94,31.36s-2.47-3.73-5.51,0-5.47,0-5.47,0-2.44-3.73-5.47,0-5.51,0-5.51,0-2.47-3.73-5.51,0-5.47,0-5.47,0V27.3s2.44,3.73,5.47,0,5.51,0,5.51,0,2.47,3.73,5.51,0,5.47,0,5.47,0,2.43,3.73,5.47,0,5.51,0,5.51,0Z"/><path id="_Path_4" data-name="&lt;Path&gt;" class="cls-2" d="M41.94,25.06s-2.47-3.73-5.51,0-5.47,0-5.47,0-2.44-3.73-5.47,0-5.51,0-5.51,0-2.47-3.73-5.51,0-5.47,0-5.47,0V21s2.44,3.73,5.47,0S20,21,20,21s2.47,3.73,5.51,0S31,21,31,21s2.43,3.73,5.47,0,5.51,0,5.51,0Z"/></svg>