<?xml version="1.0" encoding="utf-8"?>
<!-- Generator: Adobe Illustrator 23.0.0, SVG Export Plug-In . SVG Version: 6.00 Build 0)  -->
<svg version="1.1" id="Standard_icons" xmlns="http://www.w3.org/2000/svg" xmlns:xlink="http://www.w3.org/1999/xlink" x="0px"
	 y="0px" viewBox="0 0 64 64" style="enable-background:new 0 0 64 64;" xml:space="preserve">
<style type="text/css">
	.st0{fill:#FFFFFF;}
</style>
<title>Icon_Phone</title>
<path id="Phone_phone_to_call_ranger_pay_phone" class="st0" d="M61.3,48c0,0-10.1-5.9-12.1-6.8s-2.7,0-3.4,0.8c0,0-3.9,4.5-4.5,5.4
	c-0.8,1.1-2.4,1.6-3.7,1c0,0-8.4-4.5-13.1-9.1l0,0c-4.7-4.7-8.9-12.9-8.9-12.9c-0.6-1.3-0.1-2.8,1-3.7c0.9-0.7,5.4-4.6,5.4-4.6
	c0.8-0.8,1.7-1.4,0.8-3.4S16,2.7,16,2.7c-0.5-1.2-1.7-1.9-3-1.7C9.9,1.2-5.8,5,4.4,29c2.8,6.9,7.1,13.1,12.4,18.2
	c5.1,5.4,11.3,9.6,18.2,12.4c24,10.1,27.8-5.5,28-8.6C63.2,49.7,62.5,48.5,61.3,48"/>
</svg>
