<svg id="Layer_1" data-name="Layer 1" xmlns="http://www.w3.org/2000/svg" width="23.58" height="15.72" viewBox="0 0 23.58 15.72">
  <title>computer</title>
  <path d="M23.58,13.36v1.18c0,0.65-.88,1.18-2,1.18H2c-1.08,0-2-.53-2-1.18V13.36H23.58ZM3.14,10.61V2a2,2,0,0,1,2-2H18.47a2,2,0,0,1,2,2v8.65a2,2,0,0,1-2,2H5.11A2,2,0,0,1,3.14,10.61Zm1.57,0a0.4,0.4,0,0,0,.39.39H18.47a0.4,0.4,0,0,0,.39-0.39V2a0.4,0.4,0,0,0-.39-0.39H5.11A0.4,0.4,0,0,0,4.72,2v8.65ZM13,14.35a0.19,0.19,0,0,0-.2-0.2h-2a0.2,0.2,0,0,0,0,.39h2A0.19,0.19,0,0,0,13,14.35Z" style="fill: #fff"/>
</svg>
