<svg xmlns="http://www.w3.org/2000/svg" width="320" height="77" viewBox="0 0 320 77"><defs><style>.a{fill:#83ab47;}.b{fill:none;}.c{fill:#6e963c;}</style></defs><path class="a" d="M320 6.6V0H0v17.4A1852.8 1852.8 0 0 1 320 6.6z"/><path class="b" d="M224.4 5.1a12.5 12.5 0 0 0 2.7 0 3.2 3.2 0 0 0 .1-1h-3a6 6 0 0 1 .2 1zm80.7.8zm1.9 11.3l-.6.4-1.8 1.1-.5.3-.5.2-1 .3h-.9l.6 2.9h1.1l1.1-.4.6-.3.6-.3 2.2-1.4.7-.5.3-.2-1.7-2.3zm-5.4-11.4h-.5zm1.4 9.1l1.2-.9a9.1 9.1 0 0 0 1.9-2.2l.3-.5.2-.4v-.2L304 9.5v.4l-.2.3a6.1 6.1 0 0 1-1.3 1.5l-.8.6-.8.4-.6.2h-.2l.7 2.9h.3l.9-.3zm-80.5-.8l1.2-.9a9 9 0 0 0 1.8-2.3l.3-.5.2-.4v-.2l-2.6-1.1v.4l-.2.3a6.1 6.1 0 0 1-1.2 1.5l-.8.6-.8.4-.6.2h-.2l.7 2.9h.3l.9-.3zm31.8-7.4c3.7 4.2 6.5.8 6.5.8h-.8a6.3 6.3 0 0 1-1.7-.6 5 5 0 0 1-2.3-2.5h-3a7.6 7.6 0 0 0 1.3 2.3zm41.1 13.1h-.4l-2.1-.6-.6-.2-.5-.2-.9-.5-.4-.2-.3-.2h-.2l-1.4 2.6.3.2.3.2.4.2 1.1.5.6.3.6.3 2.5.7h1.1l.4-2.9h-.6zM261.3 5.2a2.2 2.2 0 0 0 .1-.8h-1.6a2.7 2.7 0 0 0 1.5.8zm33.3 2c3.7 4.2 6.5.9 6.5.9h-.8a6.2 6.2 0 0 1-1.7-.6 5 5 0 0 1-2-1.9h-3a6.8 6.8 0 0 0 1 1.6zm-29.8-2a12.5 12.5 0 0 0 2.7 0 2.7 2.7 0 0 0 .1-.6h-2.9a6.3 6.3 0 0 1 .1.6zm-43.9-.1A2.2 2.2 0 0 0 221 4h-1.7a2.5 2.5 0 0 0 1.6 1.1zm69.5 7.6l.3.3.3.2.3.2.3.2 1 .7.4.3h.3l.3.2 1.2-2.7h-.5l-.3-.2a10.7 10.7 0 0 1-1.6-1.3 11.3 11.3 0 0 1-1.4-1.7l-.2-.3-.2-.3V8L288 9.5l.2.3.2.3.3.4a14.1 14.1 0 0 0 1.7 2.2zm-40-.3l.3.2.3.2.3.2 1 .7.4.3h.3l.3.2 1.2-2.7h-.5l-.3-.2A10.7 10.7 0 0 1 252 10a11.4 11.4 0 0 1-1.4-1.6l-.2-.3-.2-.3v-.3L247.8 9l.2.3.2.3.3.4a14.1 14.1 0 0 0 1.8 2.1zm4.9 6.9h-.4l-2.1-.6-.6-.2-.5-.2-.9-.4-.4-.2-.3-.2h-.2l-1.4 2.6.3.2.3.2.4.2 1.1.5.6.3.7.2 2.5.7h1.1l.4-2.9h-.6zM234.1 5l-2.8.2v1a13.7 13.7 0 0 1-.2 2.2 13 13 0 0 1-.6 2.1v.9l2.6 1.2v-1a15.9 15.9 0 0 0 .7-2.6 16.4 16.4 0 0 0 .3-2.7v-1zm-7.5 11.3l-.6.5-1.8 1.2-.5.3-.5.2-.9.4h-.9l.6 3.1h.7l.5-.2 1.1-.4.6-.3.6-.3 2.2-1.4.7-.6.2-.2-1.9-2.2zm17.8-4.7a19.8 19.8 0 0 1-1.1-2 19.9 19.9 0 0 1-.8-2.1l-.2-.7v-.3l-2.7.9v.3l.3.8a23 23 0 0 0 1 2.4 22.4 22.4 0 0 0 1.3 2.3l.5.7.2.3 2.3-1.8-.2-.2zm18.3 2.6l1.2-.9a9 9 0 0 0 1.8-2.2l.3-.5.2-.4V10l-2.6-1.1v.4l-.2.3a6.1 6.1 0 0 1-1.2 1.5l-.8.6-.8.4-.6.2h-.2l.7 2.9h.3l.9-.3zm22-2.2a19.8 19.8 0 0 1-1.1-2 19.8 19.8 0 0 1-.8-2.1l-.2-.7v-.3l-2.7.8V8l.2.8a23 23 0 0 0 1 2.5 22.3 22.3 0 0 0 1.3 2.3l.5.7.2.3 2.3-1.8-.2-.2zm-10.2-6.7l-2.8.2v1a13.6 13.6 0 0 1-.2 2.2 13 13 0 0 1-.6 2.1v.9L273 13v-1.1a15.9 15.9 0 0 0 .7-2.6 16.4 16.4 0 0 0 .3-2.7v-1zm-7.7 11.2l-.6.5-1.8 1.2-.5.3-.5.2-1 .4h-.9l.7 2.9h1.1l1.1-.4.6-.3.6-.3 2.2-1.4.7-.5.3-.2-1.8-2.6zM312 6.2v1a13.6 13.6 0 0 1-.3 2.2 13 13 0 0 1-.6 2.1v.9l2.5 1.3v-.2l.2-.4v-.5a15.9 15.9 0 0 0 .8-2.6 16.4 16.4 0 0 0 .3-2.7v-.9H312zM8.4 17.4l.3.2.3.2.3.2.3.2 1.1.7.4.2h.7l1.1-2.7h-.5l-.3-.2-.5-.4-3.9.5zM29 15.2v.9l2.6 1.2v-1.2a15.8 15.8 0 0 0 .6-2.3l-3 .3zm-8.6.6l-.8.7-.8.5-.6.3H18l.8 2.8h.3l.9-.4 1.1-.7 1.2-1a9 9 0 0 0 1.7-2.3l.2-.5.2-.4v-.2L21 15zm18.9-.6a22.3 22.3 0 0 0 1.4 2.2l.5.7.2.3 2.2-1.9-.2-.2-.4-.6-1.2-1.9-.4-.9-3 .3a22.2 22.2 0 0 0 .9 2zm6.9-2.1l.2.3.2.3.3.4a14.1 14.1 0 0 0 1.8 2l.3.2.3.2.3.2.3.2 1.1.7.4.2h.7l1.1-2.7h-.5l-.3-.2a10.6 10.6 0 0 1-1.7-1.2 11.3 11.3 0 0 1-1.5-1.6h-.1l-1.8.2zM27.6-.3l-.3-.2-.3-.2-.3-.2-.3-.2-.3-.2-.3-.2-.5-.3-.3-.3h-.7l-1 2.1h4.5zm20 .3v-.2l-2.5-1.3v.6l-.2.5V0h3zM68-1.6l-.3-.2-.3-.2-.3-.2-.3-.2-.3-.2-.3-.2-.5-.3-.4-.2h-.7l-1 2.3h.5l.3.2.9.6h4.2zM18 0h.1l-.8-2.8H17l-.9.4-1.1.7-1.2 1-.8.7h5zm40.9 11.3l-4.7.4a3.6 3.6 0 0 0 4.7-.4zm-23.3-13l-.5-.7-.2-.2h-.1l-2 1.9v.2l.4.5h3.5zM93 9.2c3.9 4.1 6.5.5 6.5.5h-.8a6.3 6.3 0 0 1-1.7-.6l-1.2-.8-3.3.2zm-23.1 2.5a13 13 0 0 1-.5 2.2v.9l2.3 1.2v-1.2a16.4 16.4 0 0 0 .8-4.7l-2.8.2a13 13 0 0 1 .2 1.4zm73.8-5.5a12.6 12.6 0 0 0 2.7-.1 2.5 2.5 0 0 0 .1-.5h-2.9zm-3.5.1a2.2 2.2 0 0 0 .1-.5h-1.2a3.1 3.1 0 0 0 1.1.5zm40.3-.8a2.2 2.2 0 0 0 .1-1.1H179a2.6 2.6 0 0 0 1.5 1.1zm3.5-.1a12.5 12.5 0 0 0 2.7-.1 3.2 3.2 0 0 0 0-1h-3a6 6 0 0 1 .3 1.1zm-10.4 1.8c3.8 4.1 6.5.6 6.5.6h-.8a6.2 6.2 0 0 1-1.7-.5 4.9 4.9 0 0 1-2.5-2.6h-2.9a7.7 7.7 0 0 0 1.4 2.5zm-40.4.9c3.8 4.1 6.5.6 6.5.6h-.8a6.2 6.2 0 0 1-1.7-.5 4.9 4.9 0 0 1-2.2-2h-2.9a6.8 6.8 0 0 0 1.1 1.9zm-55 2.3v.3l.3.8a22.9 22.9 0 0 0 1.1 2.4 22.3 22.3 0 0 0 1.4 2.3l.5.7.2.3 2.3-2-.2-.2-.4-.6-1.2-1.9a19.8 19.8 0 0 1-.9-2.1l-.3-.7v-.3zm135.7-3.7c3.8 4.1 6.5.7 6.5.7h-.8a6.3 6.3 0 0 1-1.7-.6 5 5 0 0 1-2.5-2.8h-2.9a7.9 7.9 0 0 0 1.4 2.7zm-103.5.8v.7a13.6 13.6 0 0 1-.2 2.2 13 13 0 0 1-.5 2.2v.9l2.6 1.2v-1.1a15.9 15.9 0 0 0 .6-2.6 16.4 16.4 0 0 0 .2-2.7v-1l-2.8.2zM56.8-.6l.8-.5.6-.2h.2l-.8-2.8h-.3l-.9.4-1.1.7-1.2 1a9 9 0 0 0-1.6 2h3.6zm158.3 19.8h-.4l-2.1-.5-.6-.2-.5-.2-.9-.4-.4-.2-.3-.2h-.2l-1.4 2.6.3.2.3.2.4.2 1.1.5.6.2.7.2 2.5.6h1.2l.3-2.9h-.6zM13.8 24.3h-.4l-2.1-.5-.6-.2-.5-.2-1-.4-.4-.2h-.5L7 25.1h.3l.3.2.4.2 1.1.5.6.2.7.2 2.5.6h1.2l.2-2.9h-.6zm150-12l-1.1-1.9a19.9 19.9 0 0 1-.9-2.1l-.2-.7v-.3l-2.7.9v.3l.3.8a22.9 22.9 0 0 0 1 2.4 22.6 22.6 0 0 0 1.3 2.3l.5.7.2.3 2.2-1.9-.2-.2zm5.8.5l.3.2.3.2.3.2.3.2 1.1.7.4.2h.7l1.1-2.7h-.5l-.3-.2a10.6 10.6 0 0 1-1.7-1.3A11.3 11.3 0 0 1 170 9l-.2-.3-.2-.3v-.3L167 9.7l.2.3.2.3.3.4a14.1 14.1 0 0 0 1.9 2.1zm-16.2-6.5V6l-2.8.3v1a13.6 13.6 0 0 1-.2 2.2 13 13 0 0 1-.5 2.2v.9l2.6 1.2v-1.2a15.9 15.9 0 0 0 .7-2.6 16.4 16.4 0 0 0 .2-2.7v-1zm21.5 13.4h-.4l-2.1-.5-.6-.2-.5-.2-.9-.4-.4-.2-.3-.2h-.2l-1.3 2.6.3.2.3.2.4.2 1.1.5.6.2.7.2 2.5.6h1.2l.3-2.9h-.6zm-28.8-2.2l-.5.5-1.8 1.2-.5.3-.5.2-.9.4h-.9l.8 2.8h.7l.5-.2 1.1-.5.6-.3.6-.3 2.2-1.5.7-.6.2-.2-1.9-2.2zm63.7-5.3l.3.3.3.2.3.2.3.2 1 .7.4.2h.6l1.2-2.7h-.5l-.3-.2a10.6 10.6 0 0 1-1.7-1.3 11.3 11.3 0 0 1-1.4-1.6l-.2-.3-.2-.3-2.4 1.6.2.3.2.3.3.4a14.1 14.1 0 0 0 1.6 2zm-5.7-.5l-1.1-2a19.9 19.9 0 0 1-.9-2.1l-.2-.7v-.2l-2.7.9v.3l.3.8a23 23 0 0 0 1 2.4 22.4 22.4 0 0 0 1.3 2.3l.5.7.2.3 2.2-1.9-.2-.2zm-61 2.7a9 9 0 0 0 1.8-2.3l.2-.5.2-.4v-.3l-2.6-1.1v.4l-.2.3a6.1 6.1 0 0 1-1.2 1.6l-.8.7-.8.4-.6.2h-.2l.8 2.8h.3l.9-.4 1.2-.6zm43.2 2.3l-.5.5-1.8 1.2-.5.3-.5.2-.9.4h-.9l.8 2.9h.7l.5-.2 1.1-.4.6-.3.6-.3 2.2-1.5.7-.6.2-.2-1.9-2.2zm-161 4.4l-.5.5-1.8 1.2-.5.3-.5.3-.9.4h-.9l.8 2.8h.7l.5-.2 1.1-.5.6-.3.6-.3 2.2-1.5.7-.6.2-.2-1.9-2.2zM193.8 5.6v-.3l-2.8.2v1a13.6 13.6 0 0 1-.2 2.2 13.1 13.1 0 0 1-.6 2.2v.9l2.6 1.2v-1.1a15.9 15.9 0 0 0 .7-2.6 16.4 16.4 0 0 0 .2-2.7V6c.1-.2.1-.3.1-.4zm-10.4 8a9 9 0 0 0 1.8-2.3l.2-.5.2-.4v-.3L183.1 9v.4l-.2.3a6.1 6.1 0 0 1-1.2 1.5l-.8.6-.8.4-.6.2h-.2l.8 2.8h.3l.9-.3 1.2-.6zm-88.9 8.1h-.4l-2.1-.6-.6-.2-.5-.2-.9-.4-.4-.2H89l-1.3 2.6.3.2.3.2.4.2 1.1.5.6.2.7.2 2.5.6h1.2l.3-2.9h-.6zm-28.9-1.9l-.5.5-1.8 1.2-.5.3-.5.3-.9.4h-.9l.8 2.8h.7l.5-.2 1.1-.5.6-.3.6-.3 2.2-1.5.7-.6.2-.2-1.9-2.2zm69 .8h-.4l-2.1-.5-.6-.2-.5-.2-.9-.4-.4-.2h-.5l-1.3 2.6.3.2.3.2.4.2 1.1.5.6.2.7.2 2.5.6h1.2l.3-2.9h-.6zM54.2 23h-.4l-2.1-.5-.6-.2-.5-.2-.9-.4-.4-.2h-.5l-1.3 2.6.3.2.3.2.4.2 1.1.5.6.2.7.2 2.5.6h1.2l.2-2.9h-.6zm8.4-6.3a9 9 0 0 0 1.8-2.3l.2-.5.2-.4v-.3l-2.7-1v.4l-.2.3a6.1 6.1 0 0 1-1.2 1.6l-.8.7-.8.5-.6.2h-.2l.8 2.8h.3l.9-.4 1.1-.7zm26.5-1.9l.3.2.3.2.3.2.3.2 1.1.7.4.2h.7l1.1-2.7H93l-.3-.2a10.6 10.6 0 0 1-1.7-1.2 11.3 11.3 0 0 1-1.5-1.4l-.2-.3-.2-.3v-.2l-2.4 1.6.2.3.2.3.3.4a14.1 14.1 0 0 0 1.7 2zm13.9.6a9 9 0 0 0 1.8-2.3l.2-.5.2-.4V12l-2.7-1.1v.4l-.2.3a6.1 6.1 0 0 1-1.2 1.6l-.8.7-.8.5-.6.2h-.2l.8 2.8h.3l.9-.4 1.2-.7zm20.5-2.1l-1.2-1.9a19.9 19.9 0 0 1-.9-2.1l-.2-.7v-.3l-2.7.9v.3l.3.8a22.8 22.8 0 0 0 1.1 2.4 22.4 22.4 0 0 0 1.4 2.2l.5.7.2.3 2.2-1.9-.2-.2zm5.7.4l.3.2.3.2.3.2.3.2 1.1.7.4.2h.7l1.1-2.7h-.5l-.3-.2a10.6 10.6 0 0 1-1.7-1.3 11.3 11.3 0 0 1-1.4-1.6l-.2-.3-.2-.3v.1l-2.4 1.6.2.3.2.3.3.4a14.1 14.1 0 0 0 1.5 2zM106 18.5l-.5.5-1.8 1.2-.5.3-.5.2-.9.4h-.9l.8 2.8h.7l.5-.2 1.1-.5.6-.3.6-.3 2.2-1.5.7-.6.2-.2-1.9-2.2zM4.7-.1zm72.8-.7A22.7 22.7 0 0 0 76-3l-.5-.7-.2-.2h-.1L73.1-2v.2l.5.6 1 1.2h3.3zM0 12.2l-2.5.9v.3l.3.8A22.9 22.9 0 0 0-1 16.6a22.2 22.2 0 0 0 1.3 2.2l.5.7.2.3 2.2-1.9-.2-.2-.4-.6-2.6.3zM321-.1a21.5 21.5 0 0 0-1-2.5 22.6 22.6 0 0 0-1.3-2.3l-.5-.7v-.2h-.1L315.9-4v.2l.4.6 1.1 2L318 0h2v1.4l1.4-.4V.7zm-95.6 0c-3.3-3-5.6.1-5.6.1h5.6zm-17.1-1a13.3 13.3 0 0 1 .6-2.2v-.9l-2.6-1.2v.6l-.2.5a16.3 16.3 0 0 0-.7 2.6 16 16 0 0 0-.2 1.7h2.9c.1-.4.1-.7.2-1.1zm72.6.9l-.3-.8a21.5 21.5 0 0 0-1.1-2.4 22.6 22.6 0 0 0-1.4-2.3l-.5-.7v-.2h-.1l-2.2 1.8v.2l.4.6 1.2 2a18.1 18.1 0 0 1 .9 2.1h3zm-40.4 0v-.3l-.3-.8a21.5 21.5 0 0 0-1.2-2.5 22.6 22.6 0 0 0-1.4-2.3l-.5-.7-.1-.2h-.1l-2.2 1.9v.1l.4.6 1.2 2a18.2 18.2 0 0 1 .9 2.1V0h2.3zm72.4-.6V-1l-.2-.3v-.2h-.1a13.9 13.9 0 0 0-2.1-2.5l-.3-.3-.3-.2-.3-.2-.3-.2-.3-.2-.3-.2-.5-.3-.4-.3h-.3l-.3-.2-1.2 2.7h.5l.3.2a10.5 10.5 0 0 1 1.6 1.3A10.9 10.9 0 0 1 310-.2h1.6zm-64.2-.4a13.3 13.3 0 0 1 .6-2.1l.2-.4v-.5l-2.6-1.3v.6l-.2.5a16.4 16.4 0 0 0-.7 2.6 16 16 0 0 0-.2 1.8h2.8c0-.4.1-.8.1-1.2zM200.1 0v-.4l-.3-.8a21.6 21.6 0 0 0-1.1-2.4 22.3 22.3 0 0 0-1.4-2.3l-.5-.7-.2-.2h-.1l-2.2 1.9v.2l.5.6 1.2 1.9a18.2 18.2 0 0 1 1 2.1h3zm101.3 0h4a3.3 3.3 0 0 0-4 0zm-12.2-.7a13.2 13.2 0 0 1 .6-2.1l.2-.4v-.5L287.5-5v.2l-.2.4-.2.5a16.3 16.3 0 0 0-.8 2.6c-.1.4-.2.9-.2 1.3h2.9zm-28.9.7h5.5c-3-2.8-5.2-.3-5.5 0zM128-1.8v-.9l-2.6-1.2v.6l-.2.5a16.3 16.3 0 0 0-.7 2.6h2.9a13 13 0 0 1 .6-1.6zM117.9-2a22.6 22.6 0 0 0-1.5-2.2l-.5-.7-.2-.2h-.1l-2.1 1.9v.2l.5.6 1.2 1.9.3.5h3.2a20.6 20.6 0 0 0-.8-2zm17.2 2l.3-.6a6.1 6.1 0 0 1 1.2-1.6l.8-.7.8-.5.6-.2h.2l-.8-2.8h-.3l-.9.4-1.2.7-1.2 1a9 9 0 0 0-1.8 2.3l-.4.9h-.1l2.4 1h.3zM96.4-1.2l.8-.7.8-.5.6-.2h.2L98-5.5h-.3l-.9.4-1.1.7-1.2 1a9 9 0 0 0-1.7 2.3l-.4.9h3.1a6.2 6.2 0 0 1 .9-1zm-8.6.6v-.9l-2.3-1.3v.6l-.2.5a15.6 15.6 0 0 0-.7 1.7h2.9zm22.9.5l-.2-.3v-.2h-.2a13.9 13.9 0 0 0-1.8-2l-.3-.2-.3-.2-.3-.2-.3-.2-.3-.2-.3-.2-.5-.3-.4-.2h-.7L104-2.2h.5l.3.2a10.5 10.5 0 0 1 1.7 1.2l.6.6h3.6zm80.9-1.4v-.2l-.2-.3v-.2h-.2a13.8 13.8 0 0 0-1.8-2l-.3-.2-.3-.2-.3-.2-.3-.2-.3-.2-.3-.2-.5-.3-.4-.2h-.7l-1.1 2.7h.5l.3.2a10.5 10.5 0 0 1 1.7 1.3 10.9 10.9 0 0 1 1.4 1.6h.1v.2l.2.3V0h.1zm-51 1.5h2.3a3.1 3.1 0 0 0-2.3 0zm27.2-.5a13.3 13.3 0 0 1 .6-2.2v-.9l-2.6-1.2v.6l-.2.5a16.3 16.3 0 0 0-.7 2.6c-.1.4-.1.7-.1 1.1h2.9zm11.9.5h4.9c-2.3-1.9-4.1-.7-4.9 0zm-28.6-.8V-1l-.2-.3v-.2h-.2a13.9 13.9 0 0 0-1.8-2l-.3-.2-.3-.2-.3-.2-.3-.2-.3-.2-.3-.2-.5-.3-.4-.2h-.7l-1.1 2.7h.5l.3.2a10.5 10.5 0 0 1 1.7 1.3 10.9 10.9 0 0 1 1.3 1h1.8zm8.1.3a21.5 21.5 0 0 0-1.2-2.4 22.6 22.6 0 0 0-1.4-2.2l-.5-.7-.2-.2h-.1l-2.1 1.9v.1l.5.6 1.2 1.9.7 1.5h3.1zm60.9.5a6.1 6.1 0 0 1 4.1 4h3a6.8 6.8 0 0 0-1.7-4zm-48.2 3.3a4.1 4.1 0 0 0 .3 1.4h2.9a6.6 6.6 0 0 1-.5-1.8zM98.2 4.6a2.5 2.5 0 0 0 .1 1.8 2.5 2.5 0 0 0 1.7 1 2.1 2.1 0 0 0-.2-1.8 2.8 2.8 0 0 0-1.6-1zm-80.1.3a6 6 0 0 1 4.7 5 12.6 12.6 0 0 0 2.7-.1 6.5 6.5 0 0 0-1.9-5.1c-3.4-2.9-5.5.2-5.5.2zm80.7-2.6a6 6 0 0 1 4.7 5 12.6 12.6 0 0 0 2.7-.1 6.5 6.5 0 0 0-1.8-5.1c-3.4-2.9-5.6.2-5.6.2zm-41 3.5a2.5 2.5 0 0 0 .2 1.8 2.5 2.5 0 0 0 1.7 1.1 2.1 2.1 0 0 0-.2-1.8 2.8 2.8 0 0 0-1.7-1.1z"/><path class="b" d="M212.3 2.8a3.6 3.6 0 0 0 .2 1.3h2.9a6.7 6.7 0 0 1-.4-1.7zM142.9 0h-2.3a3.9 3.9 0 0 0-1.6 1.2 6.1 6.1 0 0 1 4.6 4.5h2.9a6.8 6.8 0 0 0-1.9-4.7 5.4 5.4 0 0 0-1.7-1zm76.3 2.2a2.5 2.5 0 0 0 .1 1.8h1.7a1.9 1.9 0 0 0-.3-.7 2.8 2.8 0 0 0-1.5-1.1zM184.7 0h-4.9l-.3.4a6.2 6.2 0 0 1 4.4 4h3A6.7 6.7 0 0 0 185 .3zm-5.9 2.6a2.5 2.5 0 0 0 .1 1.8h1.7a1.9 1.9 0 0 0-.3-.7 2.8 2.8 0 0 0-1.5-1.1zm-120.4 1a6 6 0 0 1 4.7 5 12.6 12.6 0 0 0 2.7-.1A6.5 6.5 0 0 0 64 3.3c-3.4-2.9-5.6.3-5.6.3zM306.3.7l-.9-.7h-4l-.7.6a6 6 0 0 1 4.4 5.2h2.7a6.5 6.5 0 0 0-1.5-5.1zM265.8 0h-5.5a6.1 6.1 0 0 1 4.4 4.4h2.9a6.7 6.7 0 0 0-1.7-4.4zm27.3 3.3a5.5 5.5 0 0 0 .5 2.1h3a6.1 6.1 0 0 1-.8-2.6zm8.4.7a2.8 2.8 0 0 0-1.5-1.1 2.5 2.5 0 0 0 0 1.8 2.1 2.1 0 0 0 1.1 1h.5a2.1 2.1 0 0 0-.1-1.7zm10.6 2.2h2.7v-.1zM318 0l.3.8.2.7v.3l1.3-.4V0zm-7.8.2l.2.3v.1l1.1-.7H310zm-64.5 1.7v.3l2.8-.2V1.1s0-.7.1-1h-2.8c0 .3 0 .7-.1 1s-.1.6 0 .8zM278.2.7V1l2.8-.8V0h-3zm7.9 1.6v.3h2.8V1.5A14 14 0 0 1 289 0h-2.9c-.1.5-.1 1-.1 1.4s.1.7.1.9zM237.8.7l2.1-.7h-2.3v.7zm14.9 2.1a4.3 4.3 0 0 0 .3 1.5h2.9a6.5 6.5 0 0 1-.5-2zm8.4.6a2.8 2.8 0 0 0-1.5-1.1 2.5 2.5 0 0 0 .1 1.8l.2.3h1.6a2 2 0 0 0-.4-1zM1.5 15.1A19.8 19.8 0 0 1 .6 13l-.3-.7V12H0v5.2l2.7-.3zM84.2 3.8V5l2.8-.3V3.8a13.6 13.6 0 0 1 .2-2.2 13.8 13.8 0 0 1 .4-1.6h-3l-.2 1a16.8 16.8 0 0 0-.2 2.8zm8-3.6l2.7 1h.1l.3-.6.2-.4h-3.3zm24.5 2.1v.3l2.7-1v-.3l-.4-.9-.2-.4h-3.2l.7 1.6zm-8.6-1.2h.1v.2l.2.3v.2l2.5-1.6h-3.8l.9 1zM76 2.8l.3.7v.3l2.7-1v-.3l-.3-.8-.8-1.7h-3.3l.4.7a18.3 18.3 0 0 1 1 2.1zM34.6 2a18.3 18.3 0 0 1 1 2.1l.3.7v.3l2.7-1v-.3l-.3-.8A21.6 21.6 0 0 0 37.1.5l-.3-.5h-3.4zm33 .3h.1v.2l.2.3V3l2.4-1.6v-.3l-.2-.3V.6h-.2l-.4-.6h-4.2l.9.7a10.9 10.9 0 0 1 1.4 1.6zM17.5 7.2a2.5 2.5 0 0 0 .1 1.8 2.5 2.5 0 0 0 1.7 1 2.1 2.1 0 0 0-.3-1.8 2.8 2.8 0 0 0-1.5-1zM23.4.5h.3l.3.2A10.5 10.5 0 0 1 25.8 2a10.9 10.9 0 0 1 1.5 1.6h.1v.2l.2.3v.2L30 2.7v-.2l-.2-.3V2h-.2a13.9 13.9 0 0 0-1.7-2h-4.6v.3zm28.5.6h-.1l2.7 1h.1l.3-.6A6.1 6.1 0 0 1 56 .1h-3.5v.1zm112.9 1.5v.3l2.8-.2v-1a14 14 0 0 1 .1-1.7h-2.9c-.1.6-.1 1.2-.1 1.7s.1.7.1.9zM189.3 0h-.2l.1.1.1-.1m8.1.9L200 0h-2.9l.2.6zm-72.9 2.6v.3l2.8-.3V2.6a13.6 13.6 0 0 1 .2-2.2V0h-2.9a16.9 16.9 0 0 0-.2 2.6c0 .4 0 .7.1.9zM205.3 2v.3l2.8-.2v-1s0-.7.1-1.1h-2.9c0 .4 0 .8-.1 1.1s0 .7.1.9zm-70.2-2h-.3l.3.1V0m13.2.2v.1l.2.3v.1L150 0h-1.6zm8.6 1.1v.3l2.7-1V0h-3.1l.3.6zm-113 3.8v1.2l2.9-.3V5.1a13.6 13.6 0 0 1 .2-2.2 13.3 13.3 0 0 1 .4-2.3V0h-3a16.6 16.6 0 0 0-.5 2.3 16.8 16.8 0 0 0 0 2.8zm66.5 2.2v.2l2.8-.2V7zm-52 3.6a6.3 6.3 0 0 1-1.7-.5 5.2 5.2 0 0 1-3-4.4l-2.7.5a7.5 7.5 0 0 0 1.7 3.9 7.8 7.8 0 0 0 1.5 1.3l4.7-.4.3-.3zM11.6 2.4h-.1l2.7 1h.1l.3-.6a6.1 6.1 0 0 1 1.2-1.6l.8-.7.8-.5.6-.3h-5a8.9 8.9 0 0 0-1 1.5zm61.3 6.5v-.7l-2.9.3v1.9l2.8-.2v-.7zM94 4.8l-2.7.5a7.4 7.4 0 0 0 1.3 3.3l3.3-.2A5.5 5.5 0 0 1 94 4.8zm-75.9 7.4a6.3 6.3 0 0 1-1.7-.5 5.2 5.2 0 0 1-3-4.4l-2.7.5a7.5 7.5 0 0 0 1.7 3.8c3.9 4 6.5.5 6.5.5zM140 4.6a2.8 2.8 0 0 0-1.6-1.1 2.5 2.5 0 0 0 .1 1.8 1.7 1.7 0 0 0 .6.6h1.2a2 2 0 0 0-.3-1.3zm-8.5-.4a5.5 5.5 0 0 0 .6 2h2.9a6.2 6.2 0 0 1-.8-2.4zM80.9 9.4zm-48.4 1.3V9.5l-2.8.3v1a13.6 13.6 0 0 1-.1 2.2l-.2 1.1 3-.3v-.4a16.4 16.4 0 0 0 .1-2.7zm-7.9 3.8l-2.7-1v.4l-.2.3-.5.7 3.4-.4h.1zm-15.8-.9l-.2-.3-.3-.3v-.2l-2.5 1.6.2.3.2.3.3.4.9 1.1 3.9-.5-1.2-.9a11.3 11.3 0 0 1-1.3-1.5zM4.5.5l-.2.5a16.4 16.4 0 0 0-.6 2.7 16.8 16.8 0 0 0-.2 2.7v1.2l2.8-.3V6.4a13.6 13.6 0 0 1 .2-2.2A13.3 13.3 0 0 1 7 2v-.9L5 0h-.3v.5zM40.6 11v-.3l-2.7 1v.3l.3.8v.4l3-.3-.5-1.2zm8.1.7v-.2l-1.3.9 1.8-.2-.2-.2z"/><path class="c" d="M179.4.4l.3-.4h-12a14 14 0 0 0-.1 1.7v1l-2.8.2V1.7s0-1.1.1-1.7h-5.5v.6l-2.7 1v-.3l-.3-.7-.3-.6H150l-1.2.8V.6l-.2-.3V.2h-5.4a5.4 5.4 0 0 1 1.7 1 6.8 6.8 0 0 1 1.9 4.5l25.7-.9a4.1 4.1 0 0 1-.3-1.4l2.7-.5a6.6 6.6 0 0 0 .5 1.8h3.8a2.5 2.5 0 0 1-.1-1.8 2.8 2.8 0 0 1 1.6 1.1 1.9 1.9 0 0 1 .3.7h3.2a6.2 6.2 0 0 0-4.8-4.3zm40.7-.4h-12c0 .4-.1.8-.1 1.1v1l-2.8.2V1.1s0-.7.1-1.1H200l-2.6.9V.6l-.2-.6h-12.5l.3.3a6.7 6.7 0 0 1 1.8 4.1l25.7-.4a3.6 3.6 0 0 1-.2-1.3l2.7-.5a6.7 6.7 0 0 0 .4 1.7h3.8a2.5 2.5 0 0 1-.1-1.8 2.8 2.8 0 0 1 1.6 1.1 1.9 1.9 0 0 1 .3.7h3.2a6.1 6.1 0 0 0-4.1-3.9zM139 1.2a3.9 3.9 0 0 1 1.6-1.2h-13.1v.4a13.6 13.6 0 0 0-.2 2.2v1l-2.8.3V2.6a16.9 16.9 0 0 1 .2-2.6h-5.8l.2.4.3.8v.3l-2.7 1v-.2l-.3-.7-.7-1.6h-4.8l-2.4 1.6-.2-.3v-.1h-.3l-.9-1H95.4l-.2.4-.3.6h-.1l-2.6-1h-4.6a13.8 13.8 0 0 0-.3 1.5 13.6 13.6 0 0 0-.2 2.2v1l-2.8.1V3.8a16.8 16.8 0 0 1 .1-2.8l.2-1h-6.7l.8 1.6.3.8v.3l-2.7 1v-.2l-.3-.7a18.3 18.3 0 0 0-1-2.1l-.4-.7h-5.1l.3.4h.2v.4l.2.3v.2l-2 1.8v-.3l-.2-.3v-.1h-.1A10.9 10.9 0 0 0 66.1.7l-.8-.7H56a6.1 6.1 0 0 0-1.2 1.6l-.3.6h-.1l-2.7-1h.1l.4-.9V0h-4.6v.6a13.3 13.3 0 0 0-.5 2.2 13.6 13.6 0 0 0-.4 2.2v1l-2.8.3V5.1a16.8 16.8 0 0 1 .2-2.7 16.6 16.6 0 0 1 .5-2.4h-7.8l.3.5a21.6 21.6 0 0 1 1.2 2.4l.3.8V4L36 5.1v-.3l-.3-.7a18.3 18.3 0 0 0-1-2.1L33.4.1h-5.5a13.9 13.9 0 0 1 1.6 1.7h.2V2l.2.3v.2l-2.1 1.9v-.2l-.2-.3v-.2h-.1A10.9 10.9 0 0 0 25.8 2 10.5 10.5 0 0 0 24.1.8l-.4-.2h-.5V0h-5.4l-.6.3-.8.5-.8.7A6.1 6.1 0 0 0 14.5 3l-.3.6h-.1l-2.7-1h.1l.4-.9A8.9 8.9 0 0 1 13 0H5l2.4 1v1a13.3 13.3 0 0 0-.5 2.2 13.6 13.6 0 0 0-.2 2.2v1l-2.8.3V6.4a16.8 16.8 0 0 1 .2-2.7A16.4 16.4 0 0 1 4.3 1l.2-.5V0H0v12.2h.2v.3l.3.7a19.8 19.8 0 0 0 .9 2.1L2.6 17l4.8-.5-.9-1.1-.3-.4-.2-.3-.2-.3 2.4-1.6v.2l.2.3.2.3a11.3 11.3 0 0 0 1.5 1.6l1.2.9 9.8-1.1.5-.7.2-.3v-.4l2.7 1h-.1l4.8-.5.2-1.1a13.6 13.6 0 0 0 .1-2.2v-1l2.8-.3v1.2a16.4 16.4 0 0 1-.2 2.7v.4l6.1-.6v-.4L38 12v-.3l2.7-1v.3l.3.7.5 1.2 5.9-.5 1.3-.9v.2l.2.3.2.2 5.2-.5a7.8 7.8 0 0 1-1.5-1.3 7.5 7.5 0 0 1-1.7-3.9l2.6-.5a5.2 5.2 0 0 0 3 4.4 6.3 6.3 0 0 0 1.7.5h.8l-.3.3 11.1-.9V8.5l2.8-.3v1.9l8-.7 11.7-.8a7.4 7.4 0 0 1-1.3-3.3l2.8-.5a5.5 5.5 0 0 0 1.8 3.6l14.5-.9v-.2l2.8-.3v.3l18.9-1a5.5 5.5 0 0 1-.6-2l2.7-.5a6.2 6.2 0 0 0 .8 2.4L139 6a1.7 1.7 0 0 1-.6-.6 2.5 2.5 0 0 1-.1-1.8 2.8 2.8 0 0 1 1.7 1 2 2 0 0 1 .3 1.3h3.3a6.1 6.1 0 0 0-4.6-4.7zM12.3 11.8A7.5 7.5 0 0 1 10.6 8l2.7-.5a5.2 5.2 0 0 0 3 4.4 6.3 6.3 0 0 0 1.7.5h.8s-2.6 3.4-6.5-.6zm7-1.8a2.5 2.5 0 0 1-1.7-1.1 2.5 2.5 0 0 1-.1-1.8A2.8 2.8 0 0 1 19 8.2a2.1 2.1 0 0 1 .3 1.8zm6.2-.3a12.6 12.6 0 0 1-2.7.1 6 6 0 0 0-4.7-5s2.2-3.1 5.6-.2a6.5 6.5 0 0 1 1.8 5.1zm34.1-1A2.5 2.5 0 0 1 58 7.6a2.5 2.5 0 0 1-.1-1.8 2.8 2.8 0 0 1 1.6 1.1 2.1 2.1 0 0 1 .1 1.8zm6.2-.3a12.6 12.6 0 0 1-2.7.1 6 6 0 0 0-4.7-5S60.6.4 64 3.3a6.5 6.5 0 0 1 1.9 5.1zm34.1-1a2.5 2.5 0 0 1-1.7-1.1 2.5 2.5 0 0 1-.1-1.8 2.8 2.8 0 0 1 1.6 1.1 2.1 2.1 0 0 1 .3 1.8zm6.2-.3a12.6 12.6 0 0 1-2.7.1 6 6 0 0 0-4.7-5s2.2-3.1 5.6-.2a6.5 6.5 0 0 1 1.9 5.2zM300.7.6l.7-.6h-12.3a14 14 0 0 0-.1 1.5v1h-2.8V1.4s.1-.9.1-1.4H281v.2l-2.7.9V.7l-.2-.7h-12.2a6.7 6.7 0 0 1 1.7 4.5l26 .8a5.5 5.5 0 0 1-.5-2.1l2.8-.4a6.1 6.1 0 0 0 .8 2.6l4.6.2a2.1 2.1 0 0 1-1.1-1 2.5 2.5 0 0 1 0-1.8 2.8 2.8 0 0 1 1.3 1.2 2.1 2.1 0 0 1 .2 1.6l3.5.2a6 6 0 0 0-4.5-5.2zM260.3 0h-11.7c0 .4-.1.7-.1 1v1l-2.8.2V1s0-.6.1-1H240l-2.1.7V0h-12.4a6.8 6.8 0 0 1 1.7 4l25.8.2a4.3 4.3 0 0 1-.3-1.5l2.8-.4a6.5 6.5 0 0 0 .5 2h3.9l-.2-.3a2.5 2.5 0 0 1-.1-1.8 2.8 2.8 0 0 1 1.5 1.1 2 2 0 0 1 .3 1h3.3a6.1 6.1 0 0 0-4.4-4.3zm58.3 1.6l-.2-.7-.4-.9h-6.4l-1.1.7V.4l-.2-.3V0h-4.7l.9.7a6.5 6.5 0 0 1 1.6 5.2h-.5l4.8.2h2.7v.3l5.2.2V1.4l-1.3.4z"/></svg>