<svg xmlns="http://www.w3.org/2000/svg" viewBox="0 0 180 420" width="180" height="420"><defs><style>.a{fill:none;}.b{fill:#82ab45;}.c{fill:#fff;}.d{clip-path:url(#a);}.e{fill:#739a44;}</style><clipPath id="a"><path class="a" d="M2 0a748.5 748.5 0 0 0 168.3 420h6.4A666.8 666.8 0 0 1 37.9 11.8c0-3.9 0-7.7.1-11.7z"/></clipPath></defs><path class="b" d="M2 0a748.5 748.5 0 0 0 168.3 420h6.4A666.8 666.8 0 0 1 37.9 11.8c0-3.9 0-7.7.1-11.7z"/><path class="c" d="M.1 0v420h170.2A748.5 748.5 0 0 1 2 0z"/><g class="d"><path class="e" d="M161.7 407.4a3.8 3.8 0 0 1-2-.6l3.4 4.2h.1l4.5 5.6h.1l1.8-1.2.5-.5.2-.2 1.8 2-.2.2-.7.6-1.8 1.2.9 1.1h6.4l-7.4-9.8a4.3 4.3 0 0 1-1 1.2c-.7-.5-1.9-1.7-2-1.8a6.2 6.2 0 0 0 1.2-1.7l-2.3-3.2a1.6 1.6 0 0 1-.2.7 2.4 2.4 0 0 1-1.3 1.1 2.6 2.6 0 0 1-.1-1.8 1.9 1.9 0 0 1 .8-1l-1.9-2.6a5.7 5.7 0 0 0-.8 6.5zM30.1 154.5l1.8-1.8 2-1.6.7-.5.3-.2 1.5 2.3h-.2l-.6.4-1.7 1.4-1.5 1.6-.4.6v.2l-1.1-.8 2 6.8v-.6l.2-.3.2-.3a13 13 0 0 1 1.5-2.2h.2l.2-.2.3-.3.2-.2h.1l2 1.8h-.2l-.2.2h-.3a10.3 10.3 0 0 0-1.2 1.7 9.9 9.9 0 0 0-.8 1.9v.4H35v.2l-1.4-.2 1.7 5.4.5-.3h.1l.4.5.6.6.8.6a5.7 5.7 0 0 0 1.7.7h.9l-.4 2.7h-.3l-.9-.2a8.4 8.4 0 0 1-2-.7l2.3 7 .3-1.9H42l2.1-.4.7-.2h.3l1 2.5h-.3l-.8.3-2.6.5h-3.5l2.7 7.8.9-.9 1.9-1.7.7-.5.3-.2 1.6 2.2-.2.2-.6.4-1.6 1.5-1.6 2.7-.4.5 1.7 4.7a13.3 13.3 0 0 1 1.2-2h.2v-.2l.2-.3.2-.2h.1l2.1 1.7h-.2l-.2.2h-.2a10.5 10.5 0 0 0-1.1 1.8 10.2 10.2 0 0 0-.7 1.9v.7l2.2 6h.1l.8.6a5.9 5.9 0 0 0 1.8.6h.9l-.2 2.7h-1.3l-.7-.2 1.7 4.5h.8l2.1-.2 2.1-.5.7-.2h.2l1.1 2.5H58l-.8.3-2.6.7-2.3.2 2.7 6.7 1.8-1.8.6-.5.3-.2 1.7 2.1-.2.2-.6.5-1.6 1.6-.9 1.2 1.8 4.4.5-.8h.1v-.2l.2-.3v-.2h.1l2.3 1.6h-.2l-.2.2h-.2a10.1 10.1 0 0 0-.9 1.8 9.4 9.4 0 0 0-.4 1.2l3.5 8.2 1.5.4h.5v2.7h.2v.3h.1a.5.5 0 0 0-.6-.4l1.9 4.3 1.9-.3 2-.6.6-.3h.2l1.2 2.4h-.3l-.8.4-2.5.8-1.2.2 2.7 5.9 1.1-1.2.6-.6.2-.2 1.9 2-.2.2-.5.5-1.5 1.6-.3.5 2 4.2h.1v.3l.2-.3v-.2h.1l2.3 1.5v.2l-.2.3v.2h.1a10.4 10.4 0 0 0-.9 1.9l4.7 9.5H81s0 .7.1 1.4v1.3l2.1 4 1.2-.3 2-.7.6-.3h.2l1.4 2.3-.3.2-.8.4-2.5.9-.6.2 2.8 5.3.6-.7.6-.6.2-.2 1.9 1.9-.2.2-.5.5-1.3 1.6 2.2 4v-.2l2.4 1.4v.6H93l-.5 1.1 5.6 10h.7l.2 1.6 2.8 4.9.6-.2 2-.9.6-.4h.2l1.5 2.3-.3.2-.8.4-2.4 1.1h-.1l2.9 4.9.2-.3.5-.7.2-.2 2 1.8-.2.2-.5.6-.8 1.1 2.5 4.2 2.2 1.1v.6h-.1l-.3.7 6.4 10.2h.3v.6l3.6 5.6h.2l1.9-1 .6-.4.2-.2.2.3.6.7.8 1.1-.3.2-.7.5-2 1.1 3.1 4.6h.1l.5-.7.2-.3 2.2 1.6-.2.2-.4.6-.7 1 3 4.4 1.9.8v.6h-.1v.4l3 4.3a4.8 4.8 0 0 1-.1-2.3 6.3 6.3 0 0 1 3.2-4.1 11.7 11.7 0 0 1 1.5 2.1 5.8 5.8 0 0 0-1.6 6.4 3.7 3.7 0 0 1-1.9-.7l7.4 10.3h.1l1.8-1.1.6-.4.2-.2 1.7 2.1-.3.2-.7.5-1.9 1.1 3.3 4.4.5-.7.2-.3 2.2 1.5-.2.2-.4.6-.5.9 3.4 4.5 1.6.6v.6h-.1l3.2 4.1a4.8 4.8 0 0 1-.2-2.1 6.2 6.2 0 0 1 2.8-4.2l-2.7-3.8-1.2-1.4h.1q-5.3-7.7-10.4-15.5a7.1 7.1 0 0 1-2.7 3.1c-.6-.5-1.8-1.7-1.9-1.8a5.1 5.1 0 0 0 1.9-3.8l-7.1-11.4-.4.2-.3.2-.2.2-.2.2-1.7-2.1.3-.2.3-.2.4-.3.4-.3-3.1-5-1.4-1.1.2-.2.3-.3-3.7-6.2h-.1l-2.5-4.3a7.9 7.9 0 0 1-.3 1.6 7.5 7.5 0 0 1-2.4 3.3c-.6-.6-1.6-1.9-1.7-2a5.1 5.1 0 0 0 2.2-4.6 5.9 5.9 0 0 0-.4-1.7l-.3-.7.7.2-5.1-9.3-1.9.9-.3.2-.3.2h-.2l-1.6-2.2.3-.2.3-.2.4-.3 2-1-2.6-5-.2.2-.6.6-.2.2-2-1.8.2-.2.5-.5.9-1.1-2-3.9-2.4-1.3v-.5l.2-.3.4-1-4.9-9.9h-1.3l-.3-2.7h.3l-1.9-4-1.6.4-2 .8-.4.2-.3.2h-.2l-1.2-2 .3-.2.3-.2.4-.2 2.4-1 1.2-.3-2.7-5.9-1.3 1.5-.6.6-.2.2-1.9-1.9.2-.2.5-.5 1.4-1.6.7-.9-2-4.4-.4.9-.2.4-.2.3-.2.3-2.4-1.4v-.2l.2-.3.2-.3a10.7 10.7 0 0 0 .8-1.9 9.7 9.7 0 0 0 .4-1.8l-2.9-6.8-.7-.4a5.8 5.8 0 0 0-1.8-.4h-1.4v-2.8h2l-2-4.8v.9h-1l-2.1.4-2 .7-.4.2h-.5l-1.3-2.3h.3l.3-.2.4-.2 2.5-.8 2.5-.4h.3l-2.9-7.3-.9 1.1-1.7 1.8-.6.5-.2.2-1.8-2 .2-.2.5-.5 1.5-1.5 1.3-1.7.4-.6v-.2h.2l-1.9-5.1v.6a13.7 13.7 0 0 1-1.2 2.3l-.3.4-.2.3-.2.3-2.2-1.5.2-.2.2-.2.2-.3a10.9 10.9 0 0 0 .9-1.8 10.1 10.1 0 0 0 .5-1.9v-.8h1.8l-1.9-5.3-.6.5h-.2l-.4-.5-.7-.6-.9-.5a6.1 6.1 0 0 0-1.9-.5h-1v-3h1.3a8.8 8.8 0 0 1 2.7.8h.1l-4.2-12.2h-.4l.3-.3-1.4-4.3h-.1l-.5.7-1.6 1.9-1.9 1.7-.7.5-.3.2-1.6-2 .2-.2.6-.4 1.6-1.5 1.4-1.6.4-.6v-.2l2.2 1.3q-2.5-7.7-4.8-15.5l-2.2 1.4h-.1l-.4-.5-.6-.6-.8-.5a6.3 6.3 0 0 0-1.8-.6h-.9l.3-2.7h1.3a8.5 8.5 0 0 1 2.6.9l1.2.8.9.8.4.4q-2.1-7.1-4-14.3l-2.1-.2 1.6-1.7q-3.3-12.4-6.1-25l-.6-.4h-.2l.5-.7-1.6-7.8a24.6 24.6 0 0 0-4-.8 23.1 23.1 0 0 0 3.1-3.2q-.9-4.3-1.7-8.7l-.6-.2v-1.3q-1.1-5.6-2-11.3l-.3-.4-.4-.4-1.1-1.3-.5-.4-.2-.2 1.7-2.1.3.2h.1l-.9-5.8a21.4 21.4 0 0 0-3.2-1.2l-2.4-.6a23.7 23.7 0 0 0 4.7-4.6l-.9-6.7-2.4-.7v-.9l.3-.9v-.9a14.9 14.9 0 0 0 .2-2v-1.4h.6l-.4-5.6-.9.4v-.5l-.2-.3-.5-.8-.3-.4-.3-.4-1.4-1.5-.5-.4-.2-.2 1.9-2 .2.2.6.5 1.2 1.3q-.4-3.3-.7-6.5a20.8 20.8 0 0 0-4.9-2.5l-2.4-.7a22.8 22.8 0 0 0 5.6-5.1l.8-1.1-.6-8-.2.6-.2.6-.4 1.1-.2.4v.6l-2.6-1v-.9l.3-.9.2-.5v-.5a15.1 15.1 0 0 0 .3-2V58h2.2l-.4-6-2.4.8V52l-.4-.8-.3-.5-.3-.5-1.3-1.6-.5-.5-.2-.1 2-1.9.2.2.6.6a15.6 15.6 0 0 1 1.6 1.9l.4.6.3.5.5 1v.3l-.4-8a20.3 20.3 0 0 0-6.5-4.2l-2.4-.8a23.7 23.7 0 0 0 6-4.8 22.5 22.5 0 0 0 2.4-3.3q-.3-10.4-.2-20.9L37 7.5a18.5 18.5 0 0 0-7.3-5.9A25.3 25.3 0 0 0 25.1 0H15l.4.9h-.3l-.7.3-2 1-1.8 1.3-.6.4h-.2L8 2.1l.2-.2.7-.5L11 0H4.5L3.3 1.1 2.2 2.2q.3 3.3.5 6.7l.5-1v-.4l.2-.3.2-.3 2.7 1.4v.2l-.3.3v.3a14.7 14.7 0 0 0-.9 1.9 11.4 11.4 0 0 0-.6 2v1H3.2l.6 6.3h.3v.2l.2.7.2.4.2.5.5 1a13.3 13.3 0 0 0 1.2 1.7l.3.3.2.2.2.2-1.9 1.7L5 27l-.2-.3-.3-.3.7 6.5a22.4 22.4 0 0 0 6 2.7A23.7 23.7 0 0 0 6 39.3l.9 6.9 1.9 1v.8a14.8 14.8 0 0 0-.9 2.3q.9 6.2 1.9 12.5l.6.6.3.3.2.2.2.2-.9.9.8 7.8 1 .4 3.1.9a23.6 23.6 0 0 0-3.5 2.6q.8 4.6 1.7 9.1 2.5 13 5.5 25.9l2.5.5-2 1.6q2.3 10.1 5 20.1l1.7-.9v.2l.3.5.6.7.8.6a5.8 5.8 0 0 0 1.7.8h.8l-.5 2.7h-.3l-.9-.2a8.6 8.6 0 0 1-2.5-1.2l-1.1-.9v-.2q1.8 7 3.8 13.9h.8l-.6.5 1.1 3.9zm110.7 219.6a2.1 2.1 0 0 1 1.3-1.1 2.1 2.1 0 0 1-1.4 2.9 2.7 2.7 0 0 1 .1-1.8zm-21-32a2.1 2.1 0 0 1 1.4-1 2.4 2.4 0 0 1-.1 1.9 2.4 2.4 0 0 1-1.4 1 2.6 2.6 0 0 1 .1-1.8zm-5.1-2.1a6.3 6.3 0 0 1 3.4-3.9 11.7 11.7 0 0 1 1.4 2.2 5.7 5.7 0 0 0-1.9 6.3s-3.8-.3-2.9-4.5zm-10-30.2a5.8 5.8 0 0 0-.3-1.7l-.3-.7s4.2.7 2.4 5.7a7.4 7.4 0 0 1-2.5 3.2c-.6-.6-1.6-1.9-1.7-2.1a5 5 0 0 0 2.4-4.3zm-2.8-1.7a2.3 2.3 0 0 1-.2 1.9 2.4 2.4 0 0 1-1.5.9 2.6 2.6 0 0 1 .2-1.8 2.1 2.1 0 0 1 1.5-.9zm-6.5-1.4A6.3 6.3 0 0 1 99 303a15.1 15.1 0 0 1 1.3 2.3 5.6 5.6 0 0 0-2.2 6.1s-3.7-.5-2.7-4.6zM87.2 276a5.9 5.9 0 0 0-.2-1.7l-.2-.7a3.7 3.7 0 0 1 1.8 1.1c.8.8 1.2 2.3.2 4.8a7.2 7.2 0 0 1-2.7 3c-.6-.6-1.5-2-1.6-2.1a5.2 5.2 0 0 0 2.7-4.3zm-2.6-1.9a2.4 2.4 0 0 1-.3 1.9 2.4 2.4 0 0 1-1.5.8 2.7 2.7 0 0 1 .4-1.8 2.1 2.1 0 0 1 1.4-.8zm-6.3-1.8a6.3 6.3 0 0 1 3.8-3.5 11.7 11.7 0 0 1 1.1 2.3 5.8 5.8 0 0 0-2.7 6s-3.5-.6-2.2-4.7zm-11-30.6a2.6 2.6 0 0 1 .4-1.8 2.1 2.1 0 0 1 1.5-.8 2.3 2.3 0 0 1-.4 1.8 2.4 2.4 0 0 1-1.5.9zm5.9 3a7.4 7.4 0 0 1-2.9 2.9c-.5-.6-1.3-2.1-1.4-2.2a5.1 5.1 0 0 0 2.9-4.1 5.8 5.8 0 0 0-.1-1.7 4.7 4.7 0 0 0-.2-.7s4 1.1 1.7 5.9zm-8.3-17.2l.3-.2.5-.2 2.5-.7 2.6-.4H72l-.2 2.7h-1l-2.1.2-2.1.6h-.9l-.6-1.2-.6-1.2zm2.2 6.2a11.6 11.6 0 0 1 1 2.4 5.7 5.7 0 0 0-2.9 5.8s-3.6-.9-2-4.9a6.2 6.2 0 0 1 3.8-3.2zm-5.2-21.4l.2-.2.2-.3a10.9 10.9 0 0 0 1-1.8 10 10 0 0 0 .6-1.9V207.5l2.8.2v1.1c-.1.3-.2.7-.3 1.1v1.3a13.6 13.6 0 0 1-1.3 2.2l-.3.4-.2.3-.2.2-2.2-1.6zm-27-73.7c-.4-.7-1-2.3-1-2.4a5 5 0 0 0 3.6-3.6 5.8 5.8 0 0 0 .2-1.7 4.7 4.7 0 0 0-.1-.7s3.8 1.8.7 6.1a7.4 7.4 0 0 1-3.4 2.3zm-2-6.3a2.6 2.6 0 0 1 .7-1.7 2.1 2.1 0 0 1 1.6-.5 2.3 2.3 0 0 1-.7 1.7 2.4 2.4 0 0 1-1.5.5zm7.1 37.1s-3.4-1.3-1.4-5.1a6.3 6.3 0 0 1 4.3-2.8 11.7 11.7 0 0 1 .7 2.5 5.8 5.8 0 0 0-3.5 5.4zm2.3 0a2.7 2.7 0 0 1 .7-1.7 2.1 2.1 0 0 1 1.6-.6 2.4 2.4 0 0 1-.6 1.8 2.4 2.4 0 0 1-1.7.5zm5.4 3.7a7.5 7.5 0 0 1-3.2 2.5c-.4-.7-1-2.3-1.1-2.4a5.1 5.1 0 0 0 3.4-3.8 5.9 5.9 0 0 0 .1-1.7 4.7 4.7 0 0 0-.1-.7s3.9 1.6 1 6.1zm3.9 30.8a6.1 6.1 0 0 0-.2 2.2s-3.6-1.1-1.7-5a6.4 6.4 0 0 1 4.2-3.1 11.6 11.6 0 0 1 .8 2.4 5.4 5.4 0 0 0-3 3.5zm2.1 2.1a2.6 2.6 0 0 1 .5-1.7 2.1 2.1 0 0 1 1.6-.7 2.3 2.3 0 0 1-.5 1.8 2.4 2.4 0 0 1-1.6.6zm5.7 3.3a7.3 7.3 0 0 1-3 2.7c-.5-.7-1.2-2.2-1.3-2.3a5 5 0 0 0 3.1-4 5.7 5.7 0 0 0 0-1.7 4.7 4.7 0 0 0-.2-.7s4.1 1.4 1.5 6zm-1-19h.9l-.4 2.7h-3l-2.1.5h-.9l-1-2.5h.7l.5-.2 2.6-.6h2.9zm-2.9-10.5l2.3 1.5-.2.2-.5.6-1.6 1.9-2 1.6-.7.5-.3.2L51 184h.2l.6-.4 1.7-1.4 1.5-1.5.4-.5zm-.4-8v1.1l-.4 1.1v.9l-.2.3a13.4 13.4 0 0 1-1.4 2.2l-.3.4-.2.3-.2.2-2.1-1.7.2-.2.2-.2.2-.3a12.2 12.2 0 0 0 1.1-1.7 10.4 10.4 0 0 0 .8-1.9v-.3h.1v-.2zm-3.7-9.3l1.2.9.9.9.5.7v.2l-2.5 1.4h-.1l-.4-.5-.6-.6-.8-.6a5.9 5.9 0 0 0-1.7-.7H47l.4-2.7h1.3a8.7 8.7 0 0 1 2.7 1zm-3.3-8.1h.7l-.5 2.6h-3.1l-2.1.3h-.9l-.9-2.5h1.2l2.6-.4h3.1zm-.3-9.3l-.2.2-.6.6-1.9 1.7-2 1.5-.7.4-.3.2-.7-1.1-.7-1.2h.3l.6-.4 1.8-1.3 1.6-1.5.5-.5.2-.2zm-2.1-9.7v1.1l-.5 1.1v.3l-.2.3-.2.3-.2.3a13.8 13.8 0 0 1-1.6 2.1l-.3.4-.3.3-.2.2-2.2-2 .2-.2.2-.2.3-.3a11 11 0 0 0 1.2-1.6 10.1 10.1 0 0 0 .9-1.8v-.4h.1v-.2zm-2.2-8.5l.8.9.5.7v.2l-2.4 1.3h-.1l-.3-.5-.6-.7-.8-.6a6 6 0 0 0-1.7-.8H38l.5-2.6h1.3a8.9 8.9 0 0 1 2.5 1.2zm-3.4-9.1h.1l-.7 2.6h-3.1l-2.1.2h-.9l-.7-2.6h1.2l2.6-.3 2.6.2h1.1zm-.2-9.5l-.2.2-.6.6-1.9 1.6L35 112l-.7.4H34l-1.3-2.4h.2l.6-.3 1.8-1.2 1.7-1.4.5-.5.2-.2zm-1.7-9.8v.6l-.2.4-.5 1.1-.2.3-.2.3-.2.3-.2.3a13.5 13.5 0 0 1-1.6 2l-.4.3-.3.3-.2.2-1.9-2 .2-.2.2-.2.3-.3a10.7 10.7 0 0 0 1.3-1.6 9.9 9.9 0 0 0 .9-1.8v-.3h.1V98zm-2.8-9.6l1 1 .7 1 .4.8v.2L35.2 93v-.2l-.3-.5-.5-.7-.7-.7a5.8 5.8 0 0 0-1.6-.9h-.8l.7-2.6h.7l.5.2a8.5 8.5 0 0 1 2.2 1.2zM17.8 51a6.3 6.3 0 0 1 4.7-2 11.6 11.6 0 0 1 .3 2.6 5.7 5.7 0 0 0-4.5 4.8s-3.1-2-.5-5.4zm-1.1-3.5h-.2a10.2 10.2 0 0 0-1.4 1.5 9.9 9.9 0 0 0-1.1 1.9l-.2.3h-.1v.2l-2.7-.6v-.7l.2-.4.3-.5v-.3l.2-.3.2-.3.2-.3.2-.3.2-.3a12.9 12.9 0 0 1 1.8-1.9h.7l.3-.2h.3l1.7 2.2H17l-.2.2zm5.3-28a5.8 5.8 0 0 0 .4-1.6 4.7 4.7 0 0 0 0-.7s3.5 2.4-.3 6.2a7.4 7.4 0 0 1-3.6 1.6c-.3-.8-.6-2.4-.6-2.6a5 5 0 0 0 4.1-2.9zm-4.4-1a2.6 2.6 0 0 1 1-1.5 2.1 2.1 0 0 1 1.7-.2 2.3 2.3 0 0 1-1 1.6 2.4 2.4 0 0 1-1.8.1zm6.4 8.1l1.5-1.4a10.1 10.1 0 0 0 1.2-1.6l.2-.3h.1v-.2l2.6 1v.6l-.2.4-.6 1-.2.3-.2.3-.2.3-.2.3a13.8 13.8 0 0 1-1.9 1.8l-.4.3-.3.2-.3.2-1.6-2.2h.2l.2-.2zm-1.4 15.7h3.1l2.6.4h1.1l-1 2.5h-.9l-2.1-.4h-3.1l-.5-2.6h.7zm-1.1 12.8a2.1 2.1 0 0 1 1.7-.3 2.4 2.4 0 0 1-.9 1.6 2.4 2.4 0 0 1-1.7.3 2.6 2.6 0 0 1 .9-1.6zm3.5 2.4a5.9 5.9 0 0 0 .4-1.7 4.7 4.7 0 0 0 0-.7s3.5 2.2-.1 6.2a7.5 7.5 0 0 1-3.6 2c-.3-.8-.7-2.4-.7-2.5a5.1 5.1 0 0 0 4-3.3zm1.6 7.5l.2-.2.2-.2.3-.2a11.1 11.1 0 0 0 1.4-1.5 10.3 10.3 0 0 0 1.1-1.7l.2-.3h.1v-.2l2.7.8v.6l-.2.4-.6 1-.2.3-.2.3-.2.3-.2.3a14.1 14.1 0 0 1-1.8 1.9l-.4.3-.3.2-.3.2-.9-1zm0 15.2h3.5l2.6.3h1.2l-.9 2.6h-1l-2.1-.2h-3.1l-.6-2.6zm.6 6.6a11.7 11.7 0 0 1 .4 2.5 5.8 5.8 0 0 0-4.3 5s-3.2-1.7-.8-5.3a6.3 6.3 0 0 1 4.7-2.2zm-.8 6.2a2.1 2.1 0 0 1 1.7-.4 2.1 2.1 0 0 1-2.5 2 2.7 2.7 0 0 1 .8-1.5zm3.7 2.1a7.2 7.2 0 0 0 .3-1.7 4.8 4.8 0 0 0 0-.7 3.7 3.7 0 0 1 1.4 1.5c.5 1 .6 2.5-1 4.6a7.3 7.3 0 0 1-3.4 2.1c-.4-.7-.9-2.4-.9-2.5a4.9 4.9 0 0 0 3.6-3.2zM33.9 71l-.2.2-.6.5-2 1.5-2.2 1.2-.8.4h-.3l-1.2-2.4h.3l.7-.3 1.9-1.1 1.7-1.3.5-.5.2-.2zm-3.2-19.6l1 1 .7 1 .4.8v.2l-2.7 1v-.2l-.3-.5-.5-.7-.7-.7a5.9 5.9 0 0 0-1.6-1h-.8l.8-2.6h.7l.5.2a8.7 8.7 0 0 1 2.5 1.5zM37 21.5v.8a17.2 17.2 0 0 1-.5 2.3l-.2.6-.2.6-.4 1-.2.4-.2.3v.3l-2.6-1.1v-.5l.2-.4.4-.9.2-.5.2-.5a15.1 15.1 0 0 0 .4-2V21l2.8.2zM32.7 9l.2.2.6.6 1.5 2 .3.6.3.6.5 1 .2.4v.6l-2.7.8V15l-.4-.9-.3-.5-.3-.5a13 13 0 0 0-1.2-1.6l-.5-.5-.2-.2zm-2.6 24.6l-.2.2-.7.5-2.1 1.4-2.3 1.1-.8.3h-.3l-1-2.5h.3l.7-.3 2-1 1.8-1.2.6-.4.2-.2zm-1.3-18.7l.7 1.1.4.8v.2l-2.7.8v-.2l-.3-.6-.5-.7-.7-.8a6 6 0 0 0-1.5-1.1h-.8l.9-2.5h.3l.4.2.5.2a8.9 8.9 0 0 1 2.3 1.6zM20 4.3h.9l2.6.2 2.5.6h1.1L26 7.8h-.9L23 7h-3.1l-.3-2.7zm-.1 6.6a13 13 0 0 1 .2 2.6 5.6 5.6 0 0 0-4.8 4.5s-3.1-2-.4-5.3a6.2 6.2 0 0 1 4.9-1.8zm-11.5.9v-.3l.2-.4.3-.5.2-.3.2-.3.2-.3.2-.3.2-.3.2-.3A13.4 13.4 0 0 1 12 7h.4l.3-.2h.3L14.6 9h-.2l-.2.2h-.3l-1.5 1.4a8.6 8.6 0 0 0-1.2 1.6l-.2.3h-.1v.2l-2.7-1zm.7 9.3L8.4 20l-.4-.8V19l2.7-.9v.2l.3.6.5.8.7.8a5.9 5.9 0 0 0 1.5 1.1l.6.2h.2l-.9 2.6h-.3l-.9-.4a8.7 8.7 0 0 1-2.4-1.8zm2.1 9.8h-.3l1.1-2.5h.9l2.1.4h3l.3 2.7h-3.8l-2.5-.3h-.8zM10 40.7h.1l.2-.2.6-.6 2.1-1.5 2.3-1.2.8-.3h.3l1 2.5h-.3l-.7.3-1.9 1.1-1.7 1.2-.5.5H12zm2.2 19.1l-.7-1.1-.4-.8v-.2l2.7-1v.2l.3.6.5.7.7.7a5.7 5.7 0 0 0 1.6 1l.6.2h.2l-.8 2.6h-.3l-.9-.3a8.5 8.5 0 0 1-2.3-1.5zm2.9 9.8h-.7l.4-1.3.5-1.3h.9l2.1.3h3.1l.3 1.3.3 1.3h-3.8l-2.6-.4zm-.6 9.6l.2-.2.6-.6 2-1.6 2.2-1.4.8-.4h.3l1.2 2.4h-.2l-.6.3-2.1 1.3-1.7 1.4-.5.5h-.2l-2.1-1.8zm1.4 9.8v-.4l.2-.5.2-.5v-.3l.2-.3.2-.3.2-.3.2-.3.2-.3a13.2 13.2 0 0 1 1.7-2h.2l.2-.2.3-.2.2-.2h.1l1.8 2.1h-.2l-.2.2h-.3a10.4 10.4 0 0 0-1.3 1.6 10.1 10.1 0 0 0-1 1.8v.3h-.1v.2l-2.7-.7zm1.6 9.2l-.8-1-.5-.8v-.2l2.4-1.2v.2l.3.5.5.7.7.7a6 6 0 0 0 1.9.9l.6.2h.2l-.6 2.6h-.3l-.9-.3a8.8 8.8 0 0 1-2.5-1.3zm3.7 9.6h-.7l.7-2.6h1l2.1.2 2.1-.2h1l.7 2.6h-.3l-.9.2-2.6.2-2.6-.2zm-.2 9.7l.2-.2.6-.6 1.9-1.7 2.1-1.5.7-.4.3-.2 1.3 2.3h-.2l-.6.4-2 1.4-1.6 1.5-.5.5v.2l-2.1-1.7zm7.6 5.7h-.1l-.2.2H28a10 10 0 0 0-1.2 1.6 9.7 9.7 0 0 0-.9 1.8v.4h-.1v.2l-2.8-.6v-1.1l.2-.5v-.2l.2-.3.2-.3.2-.3a13.5 13.5 0 0 1 1.6-2.1h.2l.2-.2.3-.3.2-.2h.1l1.9 2zm1.1 3.8a6.2 6.2 0 0 1 4.5-2.6 11.7 11.7 0 0 1 .6 2.5 5.6 5.6 0 0 0-3.9 5.2s-3.6-1.5-1.4-5.1zm-.4 18.7h-.7l.6-2.7h3.1l2.1-.3.7-.2h.3l.8 2.6h-.3l-.8.2-2.6.4h-3.4z"/></g></svg>