<svg xmlns="http://www.w3.org/2000/svg" viewBox="0 0 311 46" width="311px" height="46px"><defs><style>.a{fill:#83ab47;}.b{fill:#fff;}.c{fill:#6e963c;}</style></defs><path class="a" d="M0 45.8A1120.6 1120.6 0 0 1 311 2V0A2231.7 2231.7 0 0 0 0 21.7z"/><path class="b" d="M0-10h311V0A2231.7 2231.7 0 0 0 0 21.7z"/><path class="c" d="M177.6 9.4a1.3 1.3 0 0 1-.1-.6v-.2l2.2-.3v.2a1.7 1.7 0 0 1 .1.7v.4L194.7 8a4.7 4.7 0 0 1-.9-3.2l2.1-.2a4.7 4.7 0 0 0 2.2 3l10.5-1V6l2.2-.3h-.2a1.5 1.5 0 0 1 .1.6l14.9-1.2a5.2 5.2 0 0 1-.6-2.8 7.4 7.4 0 0 1 2.1-.1 4.5 4.5 0 0 0 1.5 2.8l11.2-.8V4l2.2-.3v.4l14.7-.8a4.9 4.9 0 0 1-.5-2.4 7.4 7.4 0 0 1 2.1-.1 5 5 0 0 0 1.2 2.3l11.7-.5 2-.3h.1v.2l14.6-.4a5.2 5.2 0 0 1-.4-2.1l-20.3.4a6.3 6.3 0 0 1 .6 1.8l-2.2.4a4.1 4.1 0 0 0-.8-2.1L253 .7v.4h-2V.8l-15.4.5a6 6 0 0 1 1 2.3l-2.1.5a3.8 3.8 0 0 0-1.5-2.7l-11.2.4v.7l-1.9.3v-.9l-16.3.7.2.2a5.4 5.4 0 0 1 1.5 2.9l-2.1.5a4.1 4.1 0 0 0-2.5-3.3h-.7l-9.5.5v1.5l-2.2.4-.3-.2v-.7a7.4 7.4 0 0 1-.1-1l-4.1.2v.2l-2 .9v-.2l-.2-.5v-.3l-5.1.3-.7.6v-.2l-.2-.2h-.1l-4.6.3a5.3 5.3 0 0 1 1.8 1.1 5.4 5.4 0 0 1 1.5 2.9l-2.1.5a3.8 3.8 0 0 0-2.5-3.2l-1.4-.3h-.6a3.2 3.2 0 0 1 1-.9l-9.2.6v.4a4.9 4.9 0 0 0 0 1.7V8l-2 .4v-.9a7.4 7.4 0 0 1 0-2.1l-5.2.4.2.4.3.6V7l-2 .9v-.4l-.2-.5-.6-1.2-3.7.3-1.7 1.4v-.2l-.2-.2-.2-.2-.7-.6-9.1.7-.3.5V8l-2.1-.6c.1 0 .1-.1.1-.2l-3.3.3a9.6 9.6 0 0 0-.2 1.7 4.9 4.9 0 0 0 0 1.7v.7l-2.2.4v-1a14.8 14.8 0 0 1-.1-2.1 2.6 2.6 0 0 1 .1-1.2l-5.8.5.9 1.7.3.6v.2l-2 .9v-.2c0-.2-.1-.3-.2-.5l-.9-1.5-.7-1-4.1.4.6.5.3.3.2.2.2.2-1.7 1.4v-.2l-.2-.2-.2-.2-1.2-1.1-1-.7-6.2.6h-.1l-.6.6a5.7 5.7 0 0 0-.8 1.3.4.4 0 0 1-.1.3v.2l-2.1-.6c.1 0 .1-.1.1-.2s.1-.2.1-.3a.6.6 0 0 1 .1-.4l.4-.7-5.4.5 1.4.5v.2c-.1 0-.1.1-.1.2v.2a9.8 9.8 0 0 0-.2 1.7 9.7 9.7 0 0 0 .1 1.7v.7l-2.2.5v-.2a.4.4 0 0 1-.1-.3v-.4A14.8 14.8 0 0 1 95 13l.3-2v-.6l-6.6.7.9 1.1 1 1.8.3.6v.2l-2 1v-.2l-.3-.5a6 6 0 0 0-.9-1.5l-1.1-1.4-.4-.4-.2-.2.3-.3-5.4.5h.1l.3.2h.5l.2.2 1.5 1.2.3.3.2.2.2.2-1.7 1.5v-.2l-.2-.2-.2-.2-1.3-1-1.4-.8h-.7L79 12l-4.8.5.4.9h-.1l-.4.2-.6.4-.6.6a3.5 3.5 0 0 0-.8 1.3.4.4 0 0 1-.1.3v.2l-2.1-.6c.1 0 .1-.1.1-.2s.1-.2.1-.3a.6.6 0 0 1 .1-.4 7.2 7.2 0 0 1 1.1-1.9l.3-.3-11 1.3-.2.7-.4-.6-29.9 3.6v.3c-.2.6-.3 1.3-.5 1.9L27.9 18 8 20.6l-1 1-.4.4c-.1.1-.1.1-.1.2L5.3 21l-5.3.7v14.2l.6-.3v.2l.3.5a7.1 7.1 0 0 0 1 1.4l1.2 1.4c.1.2.3.3.4.4h.1l-1.2 1.8h-.1c-.1-.2-.3-.3-.5-.5L.4 39.2l-.4-.5v4.4a18.9 18.9 0 0 0 2.2 2l4.6-1.3.7-1.8h.7l1.6.5h1l9.2-2.3.5-.4.2-.2.2-.2v-.2l.8.6 6.2-1.7.2-.6a24.2 24.2 0 0 0 .6-2.5 19.7 19.7 0 0 0 1.9 2.4l15.7-3.9-.7-1.8h.1l.4-.3.6-.4.6-.6a5.4 5.4 0 0 0 .7-1.3c0-.2.1-.3.1-.5l2 .4a2.4 2.4 0 0 1-.2.8 5.6 5.6 0 0 1-1.1 2l-.8.9-.8.6H47l12.1-2.9v-.8l.4.7 3.1-.7h-.1l-1-1.6-1.1-1.6-.3-.6c-.1-.1-.1-.1-.1-.2l1.9-1c0 .1 0 .1.1.2l.3.5 1 1.5a6.9 6.9 0 0 0 1.1 1.3l.4.4h.1l-.7.9 5.8-1.3h-1.1l-.2-.2-1.6-1.3h-.3l-.2-.2v-.2l1.7-1.5c.1 0 .1 0 .1.1l.2.2h.3l1.2 1 1.4.8h.7l-.2.8 3.9-.9h.1l.4-.2.6-.4.6-.6a3.5 3.5 0 0 0 .8-1.3c.1-.2.2-.3.2-.5l2.1.6a1.9 1.9 0 0 1-.2.7l-.4.9 4.7-1h-.4v-.2c.1 0 .1-.1.1-.2a.4.4 0 0 0 .1-.3 9.9 9.9 0 0 0 .2-1.7 9.7 9.7 0 0 0-.1-1.7 1.3 1.3 0 0 0-.1-.6V20l2.1-.5a.4.4 0 0 1 .2.3c0 .2.1.4.1.7a14.8 14.8 0 0 1 .1 2.1l-.3 2 5.7-1.1h-.1l-1.1-1.7-.3-.6c-.1-.1-.1-.1-.1-.2l2-1c0 .1 0 .1.1.2l.3.5c.3.4.6 1 1 1.5l.7.9 4-.8-.8-.7h-.3l-.2-.2c0-.1 0-.1-.1-.2l1.6-.9c.1 0 .1 0 .1.1l.2.2h.2l1.3 1.1.3.2 8-1.5v-.3c.1-.2.2-.3.2-.5l1.6.5 4.2-.8a6.9 6.9 0 0 0 .1-1.1 4.9 4.9 0 0 0 0-1.7 1.3 1.3 0 0 1-.1-.6v-.2l2.2-.4c.1.2.1.2 0 .2s.1.4.1.7a14.8 14.8 0 0 1 .1 2.1v.6l4.8-.8v-.3l-.5-.8c-.1-.1-.1-.1-.1-.2l2-1v.2l.3.5.5 1 4-.7 1.3-.7c.1 0 .1 0 .1.1l.2.2h.4l4.5-.7a3.5 3.5 0 0 1-2-.7 4.9 4.9 0 0 1-1.8-3.8 7.6 7.6 0 0 1 2.1-.3 4.7 4.7 0 0 0 4 3.5 3.1 3.1 0 0 1-1.5 1.2l10.5-1.6a4.9 4.9 0 0 0 0-1.4 1.3 1.3 0 0 1-.1-.6v-.2l2.2-.4v.3c0 .2.1.4.1.7a7.4 7.4 0 0 1 .1 1.3l4.1-.6 2-.9v.2l.3.5 9.3-1.3h-.1a5.3 5.3 0 0 1-1.7-3.7 7.6 7.6 0 0 1 2.1-.3 4.7 4.7 0 0 0 3.6 3.5l9.3-1.1zM261 .6a2 2 0 0 1 1.3.9 1.5 1.5 0 0 1 .1 1.3 2 2 0 0 1-1.2-.8 1.4 1.4 0 0 1-.2-1.4zm-31.2 1.6a2.2 2.2 0 0 1 1.3.8 2.2 2.2 0 0 1 .2 1.4 2.2 2.2 0 0 1-1.3-.8 2.2 2.2 0 0 1-.2-1.4zm-31.2 2.2a2.2 2.2 0 0 1 1.3.8 2.2 2.2 0 0 1 .2 1.4 2.6 2.6 0 0 1-1.3-.8 2.2 2.2 0 0 1-.2-1.4zM56.4 14.7l.2.2.5.5a10.1 10.1 0 0 1 1.3 1.6 9.1 9.1 0 0 1 1.1 1.6l.3.6c.1.1.1.1.1.2l-2 1c0-.1 0-.1-.1-.2l-.3-.5a6 6 0 0 0-.9-1.5l-1.1-1.4-.4-.4h-.2zM38.9 21v-.3a.6.6 0 0 1 .1-.4 5.6 5.6 0 0 1 1.1-2 2 2 0 0 1 .9-.9l.8-.6.6-.4h.3l.9 2.1h-.1l-.4.3-.6.4-.6.6a5.4 5.4 0 0 0-.7 1.3.4.4 0 0 1-.1.3c-.1.1-.1.1-.1.2l-2.2-.5zm-13.4-.9h.2l.5.5a10.1 10.1 0 0 1 1.3 1.6l1.1 1.7.3.6c.1.1.1.1.1.2l-2 1c0-.1 0-.1-.1-.2l-.3-.5a6 6 0 0 0-.9-1.5l-1.1-1.3-.4-.4H24zM8 26.7c0-.1.1-.2.1-.3a.6.6 0 0 1 .1-.4 5.6 5.6 0 0 1 1.1-2l.7-.9.8-.6.6-.4h.3l1 2.1h-.1l-.4.3-.6.4-.5.6a5.4 5.4 0 0 0-.7 1.3.4.4 0 0 0-.1.3c-.1.1-.1.1-.1.2L8 26.9zm-5.4 5.1h-.4c0-.1-.1-.2-.1-.3V31a13.4 13.4 0 0 1-.1-2 7.4 7.4 0 0 1 .1-2.1v-.4a.4.4 0 0 0 .1-.3V26l2.2.5v.6a9.7 9.7 0 0 0-.1 1.7 9.9 9.9 0 0 0 .2 1.7v.5c.1.1.1.1.1.2zm7.7 8v-1.3H9.2l-.4-.2h-1a.2.2 0 0 0-.2-.2l-1.7-1.3h-.3c-.1 0-.1-.1-.2-.2h-.1l1.6-.9H7c0 .1.1.1 0 .2h.3l1.3 1 1.5.7h.7zm-.3-5.5a4.6 4.6 0 0 1-2.1-3.7l2.1-.4a4.7 4.7 0 0 0 4.2 3.2s-1.3 2.7-4.2.9zm4.3-2.7A1.6 1.6 0 0 1 13 31a1.5 1.5 0 0 1-.4-1.3 2 2 0 0 1 1.4.6 1.5 1.5 0 0 1 .3 1.3zm4.9 3.8a5.4 5.4 0 0 1-1 2l-.8.9-.8.6-.6.4h-.2l-.9-2h.1l.4-.3.5-.4.5-.6a5.4 5.4 0 0 0 .7-1.3c0-.2.1-.3.1-.5l2.2.5a1.9 1.9 0 0 1-.2.7zm-1.8-4.2a4.1 4.1 0 0 0-2.8-3 3.2 3.2 0 0 0-1.4-.2h-.6s1.6-3 5.1-.4a5 5 0 0 1 1.8 2.7zm3.4-5.2v-.2l-.2-.2-.2-.2-1.3-1-1.5-.7h-.7l.5-2.2v.6h1l.9.4h.6l.2.2 1.7 1.1.3.3.2.2.2.2zm4.3 8.7c0 .2-.1.3-.1.4a.4.4 0 0 0-.1.3v.2l-2.1-.6v-.4a.4.4 0 0 0 .1-.3c0-.4.1-1.1.1-1.7a9.7 9.7 0 0 0-.1-1.7 1.3 1.3 0 0 0-.1-.6v-.2l2.1-.5c0 .1 0 .1.1.2a1.7 1.7 0 0 0 .1.7 9.9 9.9 0 0 1 0 4.2zm7.8.8l-.6-.6-1.4-1.5-1.2-1.7-.3-.6v-.2l1.9-1.1c0 .1 0 .1.1.2l.3.5 1 1.5 1.2 1.4.4.4h.1zm2.6-14.6c-.1 0-.1.1-.1.2v.2a9.8 9.8 0 0 0-.2 1.7 9.7 9.7 0 0 0 .1 1.7v.3c.1.1.1.1.1.2v.2l-2.1.5a.4.4 0 0 1-.1-.3v-.4A14.9 14.9 0 0 1 33 23a6.9 6.9 0 0 1 .3-2v-.4a.4.4 0 0 0 .1-.3v-.2l2.1.6zm5.4 13.2l-.6-.9h-.7l-.4-.2h-1l-.2-.2-1.6-1.3h-.3l-.2-.2h-.1l1.6-1.5c.1 0 .1 0 .1.1l.2.2h.3l1.3 1 1.4.8h.7zm-.3-5.5a5.3 5.3 0 0 1-2-3.7l2.1-.4a4.5 4.5 0 0 0 4.1 3.3s-1.3 2.7-4.2.8zm3.2-3.3a1.5 1.5 0 0 1-.4-1.3 2.7 2.7 0 0 1 1.4.7 2.8 2.8 0 0 1 .3 1.3 2.1 2.1 0 0 1-1.3-.7zm4.5.1a4.1 4.1 0 0 0-2.8-3 3.2 3.2 0 0 0-1.4-.2h-.6s1.7-3 5.1-.3a6.2 6.2 0 0 1 1.7 2.8zm3.3-4.8v-.2l-.2-.2-.2-.2-1.3-1.1-1.5-.8h-.7l.6-2.2v.6h.9l.9.4.4.2h.5l1.6 1.2.3.3.2.3.2.2zm4.1 8.7c0 .2-.1.3-.1.4a.4.4 0 0 0-.1.3v.2l-2.1-.6v-.2c.1 0 .1-.1.1-.2a.4.4 0 0 0 .1-.3 9.8 9.8 0 0 0 .2-1.7 9.7 9.7 0 0 0-.1-1.7 1.3 1.3 0 0 0-.1-.6v-.2l2.1-.5v.2c0 .2.1.4.1.7a14.8 14.8 0 0 1-.1 4.2zm10.8-13.6c-.1 0-.1.1-.1.2v.2a9.8 9.8 0 0 0-.2 1.7 9.7 9.7 0 0 0 .1 1.7v.7l-2.1.5c0-.1 0-.1.1-.1a.4.4 0 0 1-.1-.3v-.4a14.8 14.8 0 0 1 .1-4.2v-.4a.4.4 0 0 0 .1-.3l2.1.6zm4.9 7.8a5.2 5.2 0 0 1-1.9-3.7l2.1-.4a4.5 4.5 0 0 0 4.1 3.4s-1.4 2.6-4.3.7zm4.5-2.5a2.1 2.1 0 0 1-1.3-.7 1.5 1.5 0 0 1-.3-1.3 2.7 2.7 0 0 1 1.4.7 2 2 0 0 1 .2 1.3zm3.2-.5a4.1 4.1 0 0 0-2.7-3.1l-1.4-.2h-.6s1.7-3 5.1-.2a5.7 5.7 0 0 1 1.7 2.8zm23.2-1.5a4.9 4.9 0 0 1-1.8-3.8 7.6 7.6 0 0 1 2.1-.3 4.7 4.7 0 0 0 4 3.5s-1.5 2.6-4.3.6zm4.5-2.4a2.1 2.1 0 0 1-1.3-.7 1.7 1.7 0 0 1-.3-1.4 2.7 2.7 0 0 1 1.4.7 2.2 2.2 0 0 1 .2 1.4zm3.3-.5a4.2 4.2 0 0 0-2.7-3.1l-1.4-.2h-.6s1.8-2.9 5.1-.1a6.1 6.1 0 0 1 1.6 2.8zm27.8-3.4a2.1 2.1 0 0 1-1.3-.7 1.7 1.7 0 0 1-.3-1.4 2.7 2.7 0 0 1 1.4.7 2.2 2.2 0 0 1 .2 1.4zm3.1-.5a4.1 4.1 0 0 0-2.6-3.2l-1.4-.3h-.6s1.8-2.9 5.1 0a6.4 6.4 0 0 1 1.6 2.9 8.3 8.3 0 0 1-2.1.6zm26.8-3.7a1.7 1.7 0 0 1-.3-1.4 2.2 2.2 0 0 1 1.3.8 3.2 3.2 0 0 1 .3 1.4 2.6 2.6 0 0 1-1.3-.8zM304.4 2v-.2l-2.1.2h-11.6a4.7 4.7 0 0 1-1-2.1h2.5a1.8 1.8 0 0 0 .2 1 2.2 2.2 0 0 0 1.2.9 1.7 1.7 0 0 0 0-1.4l-.5-.5h3.1a4 4 0 0 1 .6 1.7l2.2-.3a5.6 5.6 0 0 0-.3-1.4H311v2h-6.6z"/></svg>